<svg xmlns="http://www.w3.org/2000/svg" width="322" height="322" viewBox="0 0 322 322"><path fill="#4199D5" d="M161 318c-10.422 0-20.843-1.034-31.028-3.075 29.598-36.058 23.526-80.778 18.155-120.344-5.06-37.24-9.43-69.402 12.645-91.476l5.566-5.566 21.538 21.537 6.438-83.692-83.693 6.438L135.86 67.06l-5.566 5.566c-37.18 37.18-30.645 85.303-24.88 127.76 5.058 37.256 9.423 69.41-12.647 91.482l-6.973 6.973c-24.59-13.446-45.132-33.196-59.55-57.255l8.12-8.12c11.418-11.417 25.855-16.578 46.816-16.735l2.257-.017-.29-2.238c-.458-3.57-.95-7.2-1.447-10.87-1.156-8.504-2.466-18.143-3.393-28.032l-.176-1.876-1.884.063c-28.04.95-49.652 8.862-67.703 24.842C5.527 186.334 4 173.702 4 161 4 74.43 74.43 4 161 4s157 70.43 157 157-70.43 157-157 157zm9.91-133.566c.306 2.293.617 4.6.934 6.925 1.246 9.168 2.796 20.58 3.722 32.044l.15 1.86 1.868-.02c32.266-.396 56.422-9.708 76.02-29.307l5.567-5.566 25.362 25.364 6.438-83.693-83.693 6.44 21.412 21.41-5.567 5.567c-11.574 11.574-26.314 16.735-47.793 16.735-.796 0-1.6-.007-2.404-.02l-2.323-.04.308 2.302z"/><path fill="#378DCA" d="M161 6c41.402 0 80.326 16.123 109.602 45.398C299.877 80.674 316 119.598 316 161s-16.123 80.326-45.398 109.602C241.326 299.877 202.402 316 161 316c-9.19 0-18.38-.814-27.403-2.425 27.784-36.232 21.81-80.23 16.513-119.264-4.988-36.713-9.295-68.42 12.077-89.792l4.152-4.152 17.047 17.048 6.15 6.15.667-8.67 5.925-77.032.357-4.653-4.653.357-77.03 5.926-8.672.667 6.15 6.15 20.748 20.748-4.152 4.152c-16.957 16.957-26.484 37.692-29.124 63.39-2.28 22.185.75 44.487 3.68 66.078 4.983 36.705 9.286 68.404-12.084 89.774l-5.908 5.908c-23.245-13-42.748-31.745-56.676-54.47l7.01-7.01c11.017-11.017 25.023-15.997 45.417-16.15l4.514-.035-.577-4.477c-.463-3.594-.95-7.2-1.45-10.883-1.153-8.485-2.46-18.103-3.384-27.95l-.352-3.752-3.766.128c-26.843.91-48.652 8.51-66.437 23.193C7.258 183.84 6 172.45 6 161c0-41.402 16.123-80.326 45.398-109.602C80.674 22.123 119.598 6 161 6m64.862 153.89l-4.152 4.15c-11.17 11.17-25.472 16.15-46.376 16.15-.786 0-1.578-.007-2.373-.02l-4.644-.08.613 4.606c.304 2.296.615 4.605.932 6.93 1.308 9.626 2.79 20.535 3.71 31.938l.302 3.723 3.735-.046c32.82-.4 57.418-9.9 77.41-29.89l4.152-4.153 20.873 20.873 6.15 6.15.667-8.67 5.925-77.032.358-4.653-4.653.358-77.03 5.925-8.672.667 6.15 6.15 16.922 16.924M161 2C73.187 2 2 73.187 2 161c0 14.295 1.897 28.145 5.435 41.323 20.57-19.412 44.496-25.74 68.878-26.566.914 9.75 2.19 19.187 3.403 28.115.497 3.665.988 7.29 1.447 10.855-18.727.14-35.107 4.215-48.214 17.32l-9.22 9.22c14.84 25.32 36.482 46.17 62.422 60.037l8.027-8.027c22.775-22.776 18.342-55.393 13.216-93.164-5.704-41.997-12.167-89.6 24.31-126.078l6.982-6.98L115.11 43.48l77.03-5.924-5.924 77.03L166.34 94.71l-6.982 6.98c-22.772 22.773-18.343 55.394-13.213 93.16 5.458 40.206 11.61 85.535-19.87 121.338C137.455 318.678 149.072 320 161 320c87.813 0 159-71.187 159-159S248.813 2 161 2zm127.798 132.212l-5.925 77.03-23.702-23.7-6.98 6.98c-22.045 22.045-48.152 28.397-74.63 28.72-.91-11.246-2.366-22.073-3.735-32.153-.316-2.323-.627-4.628-.932-6.92.817.014 1.632.02 2.44.02 19.146 0 35.87-3.986 49.204-17.32l6.98-6.98-19.75-19.752 77.03-5.926z"/></svg>