<?xml version="1.0" encoding="utf-8"?>
<!-- Generator: Adobe Illustrator 17.0.2, SVG Export Plug-In . SVG Version: 6.00 Build 0)  -->
<!DOCTYPE svg PUBLIC "-//W3C//DTD SVG 1.1//EN" "http://www.w3.org/Graphics/SVG/1.1/DTD/svg11.dtd">
<svg version="1.1" xmlns="http://www.w3.org/2000/svg" xmlns:xlink="http://www.w3.org/1999/xlink" x="0px" y="0px" width="322px"
	 height="322px" viewBox="0 0 322 322" enable-background="new 0 0 322 322" xml:space="preserve">
<g id="Layer_1" display="none">
</g>
<g id="Layer_2">
	<g>
		<path fill="#4199D5" d="M161,318c-10.422,0-20.843-1.034-31.028-3.075c29.598-36.058,23.526-80.778,18.155-120.344
			c-5.06-37.241-9.429-69.403,12.645-91.477l5.566-5.566l21.538,21.537l6.438-83.692l-83.693,6.438l25.237,25.237l-5.566,5.566
			c-37.18,37.18-30.645,85.303-24.879,127.761c5.057,37.255,9.422,69.41-12.648,91.481l-6.973,6.973
			c-24.59-13.445-45.132-33.195-59.549-57.254l8.12-8.12c11.417-11.417,25.854-16.578,46.815-16.735l2.257-0.017l-0.289-2.238
			c-0.459-3.569-0.95-7.2-1.448-10.869c-1.156-8.505-2.466-18.144-3.393-28.033l-0.176-1.876l-1.883,0.063
			c-28.039,0.95-49.652,8.862-67.703,24.842C5.527,186.334,4,173.702,4,161C4,74.43,74.43,4,161,4s157,70.43,157,157
			S247.57,318,161,318z M170.911,184.434c0.305,2.293,0.616,4.601,0.933,6.925c1.246,9.169,2.796,20.581,3.722,32.045l0.15,1.861
			l1.868-0.022c32.266-0.395,56.422-9.707,76.021-29.306l5.566-5.566l25.361,25.363l6.438-83.693l-83.693,6.438l21.412,21.412
			l-5.566,5.566c-11.574,11.574-26.314,16.735-47.793,16.735c-0.796,0-1.599-0.007-2.404-0.021l-2.323-0.04L170.911,184.434z"/>
		<path fill="#378DCA" d="M161,6c41.402,0,80.326,16.123,109.602,45.398C299.877,80.674,316,119.598,316,161
			s-16.123,80.326-45.398,109.602C241.326,299.877,202.402,316,161,316c-9.19,0-18.38-0.814-27.403-2.425
			c27.784-36.232,21.811-80.231,16.513-119.264c-4.988-36.714-9.295-68.42,12.077-89.793l4.152-4.152l17.048,17.048l6.15,6.15
			l0.667-8.671l5.925-77.031l0.358-4.653l-4.653,0.358l-77.031,5.926l-8.671,0.667l6.15,6.15l20.748,20.748l-4.152,4.152
			c-16.957,16.957-26.484,37.692-29.124,63.389c-2.28,22.186,0.749,44.488,3.681,66.079c4.982,36.705,9.285,68.404-12.085,89.774
			l-5.908,5.908c-23.245-13.001-42.748-31.745-56.676-54.47l7.011-7.011c11.016-11.016,25.022-15.996,45.416-16.15l4.514-0.034
			l-0.577-4.477c-0.463-3.594-0.95-7.199-1.45-10.883c-1.153-8.485-2.46-18.103-3.384-27.95l-0.352-3.752l-3.766,0.128
			c-26.843,0.909-48.652,8.51-66.437,23.192C7.257,183.84,6,172.449,6,161c0-41.402,16.123-80.326,45.398-109.602
			C80.674,22.123,119.598,6,161,6 M225.862,159.889l-4.152,4.152c-11.169,11.169-25.472,16.149-46.376,16.149
			c-0.786,0-1.578-0.007-2.373-0.02l-4.645-0.079l0.613,4.605c0.305,2.296,0.616,4.605,0.933,6.93
			c1.308,9.626,2.79,20.535,3.711,31.938l0.301,3.723l3.735-0.046c32.821-0.402,57.419-9.9,77.411-29.892l4.152-4.152l20.873,20.873
			l6.15,6.15l0.667-8.671l5.925-77.031l0.358-4.653l-4.653,0.358l-77.031,5.925l-8.671,0.667l6.15,6.15L225.862,159.889 M161,2
			C73.187,2,2,73.187,2,161c0,14.295,1.897,28.145,5.435,41.323c20.571-19.412,44.496-25.74,68.878-26.566
			c0.914,9.749,2.189,19.187,3.403,28.115c0.497,3.665,0.988,7.291,1.447,10.855c-18.727,0.141-35.107,4.215-48.214,17.321
			l-9.218,9.218c14.839,25.322,36.481,46.171,62.421,60.038l8.027-8.027c22.776-22.776,18.343-55.393,13.217-93.164
			c-5.704-41.997-12.167-89.599,24.311-126.078l6.981-6.981L115.11,43.481l77.031-5.925l-5.925,77.031l-19.877-19.877l-6.981,6.981
			c-22.772,22.772-18.343,55.393-13.213,93.16c5.458,40.205,11.609,85.534-19.87,121.337C137.454,318.677,149.072,320,161,320
			c87.813,0,159-71.187,159-159S248.813,2,161,2L161,2z M288.798,134.212l-5.925,77.031l-23.702-23.702l-6.981,6.981
			c-22.045,22.045-48.152,28.397-74.631,28.721c-0.908-11.247-2.365-22.074-3.734-32.154c-0.316-2.322-0.627-4.627-0.932-6.919
			c0.817,0.014,1.632,0.021,2.44,0.021c19.146,0,35.87-3.987,49.204-17.321l6.981-6.981l-19.751-19.751L288.798,134.212
			L288.798,134.212z"/>
	</g>
</g>
</svg>
