<svg width="30" height="30" viewBox="0 0 30 30" xmlns="http://www.w3.org/2000/svg"><title>Fill 1412 + Fill 1413</title><g fill="#399FCC" fill-rule="evenodd"><path d="M11.848 19.914c-.128 0-.256-.05-.354-.147l-3.15-3.152c-.197-.195-.197-.512 0-.707.194-.195.51-.195.706 0l2.81 2.81 9.103-8.495c.203-.19.52-.177.707.024.188.2.178.517-.024.706L12.19 19.78c-.097.09-.22.134-.342.134"/><path d="M15 1.002c-7.72 0-14 6.28-14 14s6.28 14 14 14 14-6.28 14-14-6.28-14-14-14m0 29c-8.27 0-15-6.73-15-15s6.73-15 15-15 15 6.73 15 15-6.73 15-15 15"/></g></svg>