<svg xmlns="http://www.w3.org/2000/svg" width="322" height="322" viewBox="0 0 322 322"><path fill="#4199D5" stroke="#378DC9" stroke-width="5" stroke-miterlimit="10" d="M240.584 125.147c-18.72 18.788-28.755 25.06-36.268 30.82-3.254 2.502-4.265-.81-5.033-2.302-3.84-7.437-7.418-12.643-14.128-19.372-6.705-6.73-11.893-10.32-19.308-14.173-1.485-.772-4.782-1.786-2.287-5.055 5.74-7.534 11.99-17.606 30.714-36.392 11.584-11.624 31.562-29.452 54.014-48.245C223.344 13.738 193.356 4 161.09 4c-86.708 0-157 70.29-157 157s70.292 157 157 157 157-70.29 157-157c0-33.804-10.684-65.112-28.86-90.733-18.936 22.805-36.944 43.138-48.646 54.88zm-61.7 73.61c-33.91 34.03-102.36 38.72-88.984 23.34 29.638-34.06 10.802-57.033 33.106-79.412 14.382-14.43 35.35-10.364 50.776 5.12 15.43 15.482 19.487 36.523 5.102 50.953z"/></svg>