<svg xmlns="http://www.w3.org/2000/svg" width="235" height="235" viewBox="0 0 235 235"><path fill-rule="evenodd" clip-rule="evenodd" fill="#3D9BDD" d="M0 0h235v235H0V0z"/><path fill="none" d="M74.063 158.12h91.478v27.57H74.064z"/><text transform="translate(74.062 178.13)" fill="#FFF" font-family="'ProximaNova-Light'" font-size="30">Design</text><g fill="#FFF"><path d="M117.612 62.375c8.726 0 15.826 7.208 15.826 16.068v32.615c0 8.86-7.1 16.068-15.826 16.068s-16.05-7.208-16.05-16.068V78.443c0-8.86 7.324-16.068 16.05-16.068m0-4.625c-11.255 0-20.607 9.266-20.607 20.692v32.615c0 11.427 9.35 20.693 20.607 20.693s20.382-9.265 20.382-20.693V78.443c0-11.427-9.126-20.693-20.382-20.693z"/><path fill-rule="evenodd" clip-rule="evenodd" d="M117.524 71.625c1.258 0 2.278 1.035 2.278 2.312V85.5c0 1.277-1.02 2.312-2.278 2.312s-2.278-1.035-2.278-2.312V73.937c0-1.277 1.02-2.312 2.278-2.312z"/></g></svg>