<?xml version="1.0" encoding="utf-8"?>
<!-- Generator: Adobe Illustrator 17.0.0, SVG Export Plug-In . SVG Version: 6.00 Build 0)  -->
<!DOCTYPE svg PUBLIC "-//W3C//DTD SVG 1.1//EN" "http://www.w3.org/Graphics/SVG/1.1/DTD/svg11.dtd">
<svg version="1.1" id="Layer_1" xmlns="http://www.w3.org/2000/svg" xmlns:xlink="http://www.w3.org/1999/xlink" x="0px" y="0px"
	 width="235px" height="235px" viewBox="300 1392 235 235" enable-background="new 300 1392 235 235" xml:space="preserve">
<path fill="#3D9BDD" d="M300,1392h235v235H300V1392z"/>
<g>
	<path fill="#FFFFFF" d="M372.953,1503.132c-0.07,0-0.143-0.003-0.216-0.009c-1.649-0.117-2.892-1.553-2.772-3.205
		c0.091-1.298,4.661-29.748,5.424-34.333c0.073-0.44,0.132-0.908,0.196-1.4c0.588-4.609,1.687-13.184,15.483-13.184
		c1.655,0,2.994,1.342,2.994,3s-1.339,3-2.994,3c-8.526,0-8.977,3.507-9.544,7.948c-0.073,0.568-0.143,1.113-0.228,1.62
		c-0.593,3.58-4.734,25.014-5.36,33.776C375.825,1501.925,374.509,1503.132,372.953,1503.132z"/>
	<path fill="#FFFFFF" d="M463.047,1503.32c-1.555,0-3.17-1.207-3.281-2.786c-0.626-8.763-4.766-30.387-5.359-33.964
		c-0.085-0.507-0.155-1.052-0.228-1.62c-0.567-4.442-1.017-7.948-9.544-7.948c-1.655,0-2.994-1.342-2.994-3s1.339-3,2.994-3
		c13.795,0,14.895,8.575,15.482,13.184c0.064,0.492,0.123,0.961,0.196,1.4c0.763,4.585,5.632,33.222,5.723,34.521
		c0.12,1.652-1.123,3.088-2.772,3.205C463.19,1503.317,463.117,1503.32,463.047,1503.32z"/>
	<path fill="#FFFFFF" d="M391.178,1487.122c8.222,0,14.909,6.7,14.909,14.938s-6.687,14.938-14.909,14.938
		c-8.251,0-15.222-6.841-15.222-14.938C375.956,1493.963,382.927,1487.122,391.178,1487.122 M391.178,1481.121
		c-11.541,0-21.211,9.375-21.211,20.939s9.67,20.939,21.211,20.939s20.898-9.375,20.898-20.939S402.719,1481.121,391.178,1481.121
		L391.178,1481.121z"/>
	<path fill="#FFFFFF" d="M445.07,1487.122c8.222,0,14.909,6.7,14.909,14.938s-6.687,14.938-14.909,14.938
		c-8.252,0-15.222-6.841-15.222-14.938C429.848,1493.963,436.818,1487.122,445.07,1487.122 M445.07,1481.121
		c-11.541,0-21.211,9.375-21.211,20.939s9.67,20.939,21.211,20.939c11.541,0,20.898-9.375,20.898-20.939
		S456.611,1481.121,445.07,1481.121L445.07,1481.121z"/>
	<path fill="#FFFFFF" d="M410.322,1497.528l-3.263-5.03c0.412-0.273,4.216-2.654,10.91-2.654c6.401,0,10.307,2.1,10.734,2.341
		l-2.942,5.227c-0.006-0.003-2.95-1.568-7.792-1.568C413.073,1495.843,410.348,1497.51,410.322,1497.528z"/>
</g>
<rect x="353.093" y="1550.12" fill="none" width="129.573" height="27.569"/>
<text transform="matrix(1 0 0 1 353.0933 1570.1292)" fill="#FFFFFF" font-family="'ProximaNova-Light'" font-size="30">Discovery</text>
</svg>
