<svg xmlns="http://www.w3.org/2000/svg" width="235" height="235" viewBox="300 1392 235 235"><path fill="#3D9BDD" d="M300 1392h235v235H300v-235z"/><g fill="#FFF"><path d="M372.953 1503.132c-.07 0-.143-.003-.216-.01-1.65-.116-2.892-1.552-2.772-3.204.09-1.298 4.66-29.748 5.424-34.333.072-.44.13-.908.195-1.4.588-4.61 1.687-13.184 15.483-13.184 1.655 0 2.994 1.343 2.994 3s-1.34 3-2.994 3c-8.526 0-8.977 3.508-9.544 7.95-.073.567-.143 1.112-.228 1.62-.593 3.58-4.734 25.013-5.36 33.775-.11 1.58-1.427 2.787-2.983 2.787zM463.047 1503.32c-1.555 0-3.17-1.207-3.28-2.786-.627-8.763-4.767-30.387-5.36-33.964-.085-.507-.155-1.052-.228-1.62-.568-4.442-1.018-7.948-9.545-7.948-1.655 0-2.994-1.342-2.994-3s1.34-3 2.995-3c13.795 0 14.895 8.575 15.482 13.184.064.492.123.96.196 1.4.763 4.585 5.632 33.222 5.723 34.52.12 1.653-1.123 3.09-2.772 3.206-.074.005-.147.008-.217.008z"/><path d="M391.178 1487.122c8.222 0 14.91 6.7 14.91 14.938s-6.688 14.938-14.91 14.938c-8.25 0-15.222-6.84-15.222-14.938 0-8.097 6.97-14.938 15.222-14.938m0-6c-11.54 0-21.21 9.374-21.21 20.938s9.67 20.94 21.21 20.94 20.898-9.376 20.898-20.94-9.357-20.94-20.898-20.94zM445.07 1487.122c8.222 0 14.91 6.7 14.91 14.938s-6.688 14.938-14.91 14.938c-8.252 0-15.222-6.84-15.222-14.938 0-8.097 6.97-14.938 15.222-14.938m0-6c-11.54 0-21.21 9.374-21.21 20.938s9.67 20.94 21.21 20.94c11.54 0 20.898-9.376 20.898-20.94s-9.357-20.94-20.898-20.94z"/><path d="M410.322 1497.528l-3.263-5.03c.41-.273 4.215-2.654 10.91-2.654 6.4 0 10.306 2.1 10.733 2.34l-2.942 5.228c-.005-.003-2.95-1.568-7.79-1.568-4.897 0-7.622 1.666-7.648 1.684z"/></g><path fill="none" d="M353.093 1550.12h129.573v27.57H353.093z"/><text transform="translate(353.093 1570.13)" fill="#FFF" font-family="'ProximaNova-Light'" font-size="30">Discovery</text></svg>