<svg xmlns="http://www.w3.org/2000/svg" width="36.996" height="46.025" viewBox="0 0 36.996 46.025"><path fill="#4298D4" d="M18.34 46.025C7.61 46.025 0 38.495 0 28.12c0-5.507 3.263-11.44 3.402-11.69.283-.51.84-.787 1.42-.722.574.075 1.046.494 1.195 1.06.008.035.888 3.366 2.05 5.215.78 1.245 1.57 2.124 2.46 2.734-.603-2.64-1.064-6.612-.314-10.688C12.273 2.84 20.975.163 21.348.055c.48-.14.988-.014 1.354.322.364.338.53.844.437 1.335-.015.08-1.452 7.912 1.597 14.586.277.605.663 1.31 1.08 2.014.117-.968.3-1.997.583-2.996 1.12-3.96 4.01-5.31 4.133-5.366.482-.222 1.045-.15 1.462.182.415.332.616.868.52 1.396-.015.097-.418 2.792 1.847 6.613 2.046 3.45 2.636 5.688 2.636 9.978-.002 10.376-7.85 17.905-18.66 17.905zM4.43 21.018c-.78 1.994-1.586 4.647-1.586 7.103 0 8.706 6.412 15.025 15.493 15.025 9.16 0 15.81-6.32 15.81-15.024 0-3.76-.46-5.504-2.23-8.495-1.184-1.998-1.77-3.792-2.05-5.22-.28.46-.542 1.025-.734 1.704-.867 3.068-.65 6.658-.646 6.694.042.643-.345 1.236-.945 1.452-.6.215-1.27.003-1.637-.525-.107-.152-2.638-3.778-3.754-6.222-2.317-5.068-2.278-10.548-2.042-13.704-2.344 1.383-5.944 4.472-7.1 10.753-1.126 6.113 1.062 12.224 1.085 12.285.19.5.09 1.065-.258 1.467-.35.398-.886.576-1.403.45-.176-.043-4.182-1.098-6.775-5.233-.464-.74-.88-1.637-1.23-2.51z"/></svg>