<?xml version="1.0" encoding="utf-8"?>
<!-- Generator: Adobe Illustrator 17.0.0, SVG Export Plug-In . SVG Version: 6.00 Build 0)  -->
<!DOCTYPE svg PUBLIC "-//W3C//DTD SVG 1.1//EN" "http://www.w3.org/Graphics/SVG/1.1/DTD/svg11.dtd">
<svg version="1.1" id="Layer_1" xmlns="http://www.w3.org/2000/svg" xmlns:xlink="http://www.w3.org/1999/xlink" x="0px" y="0px"
	 width="36.996px" height="46.025px" viewBox="0 0 36.996 46.025" enable-background="new 0 0 36.996 46.025" xml:space="preserve">
<path fill="#4298D4" d="M18.339,46.025C7.61,46.025,0,38.496,0,28.121c0-5.508,3.263-11.441,3.402-11.69
	c0.283-0.51,0.839-0.788,1.42-0.723c0.574,0.075,1.046,0.494,1.195,1.061c0.008,0.034,0.888,3.365,2.049,5.214
	c0.78,1.245,1.57,2.124,2.46,2.734c-0.602-2.64-1.063-6.612-0.313-10.688C12.274,2.841,20.975,0.164,21.348,0.056
	c0.479-0.139,0.988-0.014,1.354,0.322c0.364,0.338,0.531,0.844,0.437,1.335c-0.014,0.079-1.451,7.912,1.598,14.586
	c0.277,0.606,0.663,1.311,1.079,2.015c0.118-0.968,0.301-1.997,0.584-2.996c1.119-3.959,4.011-5.311,4.133-5.366
	c0.482-0.222,1.045-0.149,1.462,0.182c0.415,0.332,0.616,0.868,0.52,1.396c-0.015,0.097-0.418,2.792,1.847,6.613
	c2.046,3.45,2.636,5.688,2.636,9.978C36.996,38.496,29.149,46.025,18.339,46.025z M4.432,21.018
	c-0.781,1.994-1.586,4.647-1.586,7.103c0,8.705,6.412,15.024,15.493,15.024c9.161,0,15.811-6.319,15.811-15.024
	c0-3.76-0.459-5.505-2.23-8.496c-1.184-1.998-1.769-3.792-2.049-5.221c-0.282,0.462-0.543,1.026-0.735,1.705
	c-0.867,3.069-0.649,6.659-0.646,6.695c0.042,0.643-0.345,1.236-0.945,1.452c-0.6,0.215-1.269,0.003-1.637-0.525
	c-0.107-0.153-2.638-3.779-3.754-6.223c-2.317-5.068-2.278-10.548-2.042-13.704c-2.344,1.383-5.944,4.472-7.1,10.753
	c-1.126,6.113,1.062,12.224,1.085,12.285c0.189,0.499,0.089,1.065-0.258,1.467c-0.349,0.399-0.885,0.577-1.402,0.452
	c-0.176-0.044-4.182-1.099-6.775-5.234C5.198,22.786,4.782,21.89,4.432,21.018z"/>
</svg>
