<?xml version="1.0" encoding="utf-8"?>
<!-- Generator: Adobe Illustrator 17.0.0, SVG Export Plug-In . SVG Version: 6.00 Build 0)  -->
<!DOCTYPE svg PUBLIC "-//W3C//DTD SVG 1.1//EN" "http://www.w3.org/Graphics/SVG/1.1/DTD/svg11.dtd">
<svg version="1.1" id="Layer_1" xmlns="http://www.w3.org/2000/svg" xmlns:xlink="http://www.w3.org/1999/xlink" x="0px" y="0px"
	 width="91px" height="73px" viewBox="0 0 91 73" enable-background="new 0 0 91 73" xml:space="preserve">
<g>
	<g>
		<rect x="19.714" y="23.524" fill="#C6C6C6" width="11.89" height="11.776"/>
		<rect x="19.714" y="11.766" fill="#B2B2B2" width="11.889" height="11.776"/>
		<rect x="19.714" y="0.008" fill="#9D9D9C" width="11.889" height="11.775"/>
		<rect x="31.604" y="0.008" fill="#878787" width="11.89" height="11.776"/>
		<rect x="31.603" y="23.524" fill="#36A9E1" width="11.889" height="11.776"/>
		<rect x="19.714" y="35.3" fill="#DADADA" width="11.89" height="11.776"/>
		<polygon fill="#575756" points="67.274,23.524 67.274,11.783 67.274,11.766 67.274,0.008 55.385,0.008 55.385,0.007 43.495,0.007 
			43.495,11.783 55.385,11.783 55.385,23.524 55.384,23.524 55.384,35.3 55.383,35.3 43.494,35.3 43.494,47.076 55.383,47.076 
			55.383,47.076 67.274,47.076 67.274,35.3 67.275,35.3 67.275,23.524 		"/>
	</g>
	<g>
		<path fill="#009FE3" d="M1.432,70.057v2.802H0v-7.707h5.392v1.464h-3.96v1.967h3.614v1.475H1.432z"/>
		<path fill="#009FE3" d="M10.514,72.859v-7.707h1.432v6.243h3.902v1.464H10.514z"/>
		<path fill="#009FE3" d="M19.633,68.994c0-2.116,1.489-3.991,3.764-3.991c2.275,0,3.752,1.898,3.752,4.013
			c0,2.116-1.489,3.991-3.752,3.991C21.122,73.007,19.633,71.109,19.633,68.994z M25.625,69.017c0-1.372-0.797-2.596-2.229-2.596
			c-1.431,0-2.239,1.2-2.239,2.573c0,1.372,0.808,2.596,2.239,2.596C24.84,71.59,25.625,70.389,25.625,69.017z"/>
		<path fill="#575756" d="M35.112,72.859h-2.886v-7.707h2.886c2.736,0,4.018,1.761,4.018,3.842
			C39.13,71.121,37.779,72.859,35.112,72.859z M35.055,66.638h-1.397v4.734h1.397c1.709,0,2.551-1.029,2.551-2.367
			C37.606,67.588,36.647,66.638,35.055,66.638z"/>
		<path fill="#575756" d="M44.253,72.859v-7.707h5.184v1.475h-3.752v1.327h3.406v1.486h-3.406v1.956h3.983v1.464H44.253z"/>
		<path fill="#575756" d="M59.373,67.496c-0.519-0.904-1.293-1.075-1.905-1.075c-0.855,0-1.351,0.286-1.351,0.777
			c0,1.487,4.341,0.4,4.341,3.499c0,1.452-1.397,2.309-3.071,2.309c-1.316,0-2.413-0.32-3.279-1.452l1.073-1.018
			c0.543,0.835,1.374,1.052,2.229,1.052c0.797,0,1.524-0.263,1.524-0.869c0-1.509-4.341-0.48-4.341-3.476
			c0-1.155,0.935-2.241,2.852-2.241c0.912,0,2.113,0.228,2.991,1.464L59.373,67.496z"/>
		<path fill="#575756" d="M65.64,72.859v-7.707h1.431v7.707H65.64z"/>
		<path fill="#575756" d="M76.179,71.59c0.566,0,0.935-0.069,1.281-0.183V70.24h-2.009v-1.498h3.44v3.671
			c-0.889,0.435-1.766,0.594-2.77,0.594c-2.241,0-3.96-1.475-3.96-4.002c0-2.058,1.304-4.002,3.671-4.002
			c1.455,0,2.424,0.594,3.221,1.669l-1.097,1.017c-0.635-0.915-1.247-1.269-2.101-1.269c-1.374,0-2.171,1.281-2.171,2.573
			C73.685,70.549,74.759,71.59,76.179,71.59z"/>
		<path fill="#575756" d="M89.13,72.859l-3.533-5.443v5.443h-1.432v-7.707h1.871l3.533,5.512v-5.512H91v7.707H89.13z"/>
	</g>
</g>
</svg>
