<?xml version="1.0" encoding="utf-8"?>
<!-- Generator: Adobe Illustrator 17.0.0, SVG Export Plug-In . SVG Version: 6.00 Build 0)  -->
<!DOCTYPE svg PUBLIC "-//W3C//DTD SVG 1.1//EN" "http://www.w3.org/Graphics/SVG/1.1/DTD/svg11.dtd">
<svg version="1.1" id="Layer_1" xmlns="http://www.w3.org/2000/svg" xmlns:xlink="http://www.w3.org/1999/xlink" x="0px" y="0px"
	 width="91px" height="73px" viewBox="0 0 91 73" enable-background="new 0 0 91 73" xml:space="preserve">
<g>
	<polygon fill="#6D6E71" points="66.576,23.498 66.576,11.767 66.576,11.75 66.576,0.001 54.81,0.001 54.81,0 43.044,0 
		43.044,0.001 31.275,0.001 30.85,0.001 19.509,0.001 19.509,11.75 19.509,11.767 19.509,23.498 19.509,23.516 19.509,35.265 
		19.509,47.031 31.276,47.031 31.276,35.265 31.276,35.264 43.041,35.264 43.041,23.498 31.276,23.498 31.275,23.498 31.275,11.768 
		43.565,11.768 43.565,11.767 54.81,11.767 54.81,23.498 54.809,23.498 54.809,35.265 54.808,35.265 43.042,35.265 43.042,47.032 
		54.808,47.032 54.808,47.031 66.576,47.031 66.576,35.265 66.576,35.265 66.576,23.498 	"/>
	<g>
		<path fill="#6D6E71" d="M1.417,69.994v2.799H0v-7.701h5.336v1.463H1.417v1.965h3.576v1.474H1.417z"/>
		<path fill="#6D6E71" d="M10.405,72.794v-7.701h1.417v6.238h3.862v1.462H10.405z"/>
		<path fill="#6D6E71" d="M19.429,68.932c0-2.114,1.474-3.988,3.725-3.988c2.251,0,3.713,1.896,3.713,4.01
			c0,2.114-1.474,3.988-3.713,3.988C20.903,72.942,19.429,71.045,19.429,68.932z M25.359,68.954c0-1.371-0.789-2.594-2.206-2.594
			s-2.216,1.199-2.216,2.571c0,1.371,0.799,2.593,2.216,2.593C24.582,71.525,25.359,70.326,25.359,68.954z"/>
		<path fill="#6D6E71" d="M34.747,72.794h-2.856v-7.701h2.856c2.708,0,3.976,1.759,3.976,3.839
			C38.723,71.057,37.387,72.794,34.747,72.794z M34.691,66.578h-1.383v4.73h1.383c1.691,0,2.525-1.028,2.525-2.365
			C37.216,67.526,36.267,66.578,34.691,66.578z"/>
		<path fill="#6D6E71" d="M43.793,72.794v-7.701h5.13v1.474H45.21v1.325h3.371v1.485H45.21v1.954h3.942v1.462H43.793z"/>
		<path fill="#6D6E71" d="M58.757,67.435c-0.513-0.903-1.28-1.074-1.885-1.074c-0.846,0-1.337,0.286-1.337,0.777
			c0,1.486,4.296,0.4,4.296,3.497c0,1.451-1.382,2.308-3.039,2.308c-1.303,0-2.388-0.32-3.245-1.451l1.062-1.017
			c0.537,0.834,1.359,1.051,2.205,1.051c0.788,0,1.508-0.263,1.508-0.868c0-1.508-4.296-0.48-4.296-3.474
			c0-1.154,0.926-2.239,2.822-2.239c0.903,0,2.091,0.228,2.96,1.463L58.757,67.435z"/>
		<path fill="#6D6E71" d="M64.959,72.794v-7.701h1.417v7.701H64.959z"/>
		<path fill="#6D6E71" d="M75.388,71.525c0.56,0,0.925-0.068,1.268-0.183v-1.166h-1.988V68.68h3.405v3.668
			c-0.88,0.434-1.748,0.594-2.742,0.594c-2.217,0-3.919-1.474-3.919-3.999c0-2.056,1.291-3.999,3.633-3.999
			c1.44,0,2.399,0.594,3.188,1.668l-1.085,1.017c-0.628-0.914-1.234-1.268-2.079-1.268c-1.359,0-2.148,1.28-2.148,2.571
			C72.92,70.485,73.983,71.525,75.388,71.525z"/>
		<path fill="#6D6E71" d="M88.205,72.794l-3.496-5.438v5.438h-1.417v-7.701h1.852l3.496,5.507v-5.507h1.417v7.701H88.205z"/>
	</g>
</g>
</svg>
