<svg xmlns="http://www.w3.org/2000/svg" width="91" height="73" viewBox="0 0 91 73"><path fill="#C6C6C6" d="M19.714 23.524h11.89V35.3h-11.89z"/><path fill="#B2B2B2" d="M19.714 11.766h11.89v11.776h-11.89z"/><path fill="#9D9D9C" d="M19.714.008h11.89v11.775h-11.89z"/><path fill="#878787" d="M31.604.008h11.89v11.776h-11.89z"/><path fill="#36A9E1" d="M31.603 23.524h11.89V35.3h-11.89z"/><path fill="#DADADA" d="M19.714 35.3h11.89v11.776h-11.89z"/><path fill="#575756" d="M67.274 23.524V.008h-23.78v11.775h11.89V35.3h-11.89v11.776h23.78V23.524"/><g><path fill="#009FE3" d="M1.432 70.057v2.802H0V65.15h5.392v1.464h-3.96v1.967h3.614v1.475H1.432zM10.514 72.86V65.15h1.432v6.243h3.902v1.464h-5.334zM19.633 68.994c0-2.116 1.49-3.99 3.764-3.99 2.275 0 3.752 1.897 3.752 4.012 0 2.116-1.49 3.99-3.753 3.99-2.275 0-3.764-1.897-3.764-4.012zm5.992.023c0-1.372-.797-2.596-2.23-2.596-1.43 0-2.238 1.2-2.238 2.574 0 1.372.808 2.596 2.24 2.596 1.443 0 2.228-1.2 2.228-2.573z"/><path fill="#575756" d="M35.112 72.86h-2.886V65.15h2.886c2.736 0 4.018 1.76 4.018 3.842 0 2.127-1.35 3.865-4.018 3.865zm-.057-6.222h-1.397v4.734h1.397c1.71 0 2.55-1.03 2.55-2.367 0-1.417-.958-2.367-2.55-2.367zM44.253 72.86V65.15h5.184v1.475h-3.752v1.327h3.406v1.486h-3.405v1.956h3.983v1.464h-5.415zM59.373 67.496c-.52-.904-1.293-1.075-1.905-1.075-.855 0-1.35.287-1.35.778 0 1.487 4.34.4 4.34 3.5 0 1.45-1.397 2.308-3.07 2.308-1.317 0-2.414-.32-3.28-1.452l1.073-1.018c.544.835 1.375 1.052 2.23 1.052.797 0 1.524-.263 1.524-.87 0-1.508-4.34-.48-4.34-3.475 0-1.155.934-2.24 2.85-2.24.913 0 2.114.227 2.992 1.463l-1.063 1.03zM65.64 72.86V65.15h1.43v7.707h-1.43zM76.18 71.59c.565 0 .934-.07 1.28-.183V70.24h-2.01v-1.498h3.44v3.67c-.888.436-1.765.595-2.77.595-2.24 0-3.96-1.475-3.96-4.002 0-2.058 1.305-4.002 3.672-4.002 1.455 0 2.424.594 3.22 1.67l-1.096 1.016c-.635-.916-1.247-1.27-2.1-1.27-1.375 0-2.172 1.28-2.172 2.573 0 1.556 1.075 2.597 2.495 2.597zM89.13 72.86l-3.533-5.444v5.443h-1.432V65.15h1.87l3.534 5.512v-5.512H91v7.707h-1.87z"/></g></svg>