<svg xmlns="http://www.w3.org/2000/svg" width="91" height="73" viewBox="0 0 91 73"><g fill="#6D6E71"><path d="M66.576 23.498V0H19.51v47.031h11.766V35.266H43.04V23.497H31.277v-11.73H54.81v23.497H43.04v11.767h23.534V23.497M1.417 69.994v2.8H0V65.09h5.336v1.463h-3.92v1.965h3.577v1.474H1.417zM10.405 72.794v-7.7h1.417v6.237h3.862v1.463h-5.28zM19.43 68.932c0-2.114 1.473-3.988 3.724-3.988 2.25 0 3.713 1.896 3.713 4.01s-1.474 3.988-3.713 3.988c-2.25 0-3.725-1.897-3.725-4.01zm5.93.022c0-1.37-.79-2.594-2.207-2.594s-2.216 1.2-2.216 2.57c0 1.372.8 2.594 2.216 2.594 1.43 0 2.206-1.198 2.206-2.57zM34.747 72.794H31.89v-7.7h2.857c2.708 0 3.976 1.758 3.976 3.838 0 2.125-1.336 3.862-3.976 3.862zm-.056-6.216H33.31v4.73h1.383c1.692 0 2.526-1.028 2.526-2.365 0-1.417-.95-2.365-2.525-2.365zM43.793 72.794v-7.7h5.13v1.473H45.21v1.325h3.37v1.485h-3.37v1.954h3.942v1.463h-5.36zM58.757 67.435c-.513-.903-1.28-1.074-1.885-1.074-.846 0-1.337.287-1.337.778 0 1.486 4.296.4 4.296 3.497 0 1.45-1.38 2.308-3.038 2.308-1.303 0-2.388-.32-3.245-1.45l1.062-1.018c.536.834 1.358 1.05 2.204 1.05.788 0 1.508-.262 1.508-.867 0-1.508-4.296-.48-4.296-3.474 0-1.154.926-2.24 2.822-2.24.903 0 2.09.23 2.96 1.464l-1.05 1.027zM64.96 72.794v-7.7h1.416v7.7H64.96zM75.388 71.525c.56 0 .925-.068 1.268-.183v-1.166h-1.988V68.68h3.405v3.668c-.88.434-1.748.594-2.742.594-2.216 0-3.918-1.474-3.918-4 0-2.055 1.29-3.998 3.633-3.998 1.44 0 2.4.594 3.188 1.668l-1.085 1.017c-.628-.915-1.234-1.27-2.08-1.27-1.358 0-2.147 1.28-2.147 2.572 0 1.553 1.063 2.593 2.468 2.593zM88.205 72.794l-3.496-5.438v5.438H83.29v-7.7h1.852L88.64 70.6v-5.507h1.417v7.7h-1.852z"/></g></svg>