<svg xmlns="http://www.w3.org/2000/svg" width="42" height="42" viewBox="825.84 1584 42 42"><g fill="#4298D4"><path d="M846.612 1618.186c-8.017 0-11.38-7.234-11.52-7.544-.298-.66-.004-1.438.656-1.737.66-.297 1.435-.005 1.735.65.113.248 2.832 6.006 9.134 6.006h.123c6.698-.078 9.384-5.934 9.41-5.993.294-.66 1.066-.963 1.733-.664.66.295.96 1.07.664 1.733-.135.304-3.415 7.45-11.777 7.55h-.158z"/><path d="M846.84 1586.625c10.132 0 18.375 8.243 18.375 18.375s-8.243 18.375-18.375 18.375-18.375-8.243-18.375-18.375 8.243-18.375 18.375-18.375m0-2.625c-11.6 0-21 9.402-21 21 0 11.6 9.4 21 21 21 11.598 0 21-9.4 21-21 0-11.598-9.402-21-21-21z"/><path d="M837.638 1601.062c0 1.446 1.172 2.62 2.62 2.62s2.618-1.174 2.618-2.62c0-1.445-1.172-2.617-2.62-2.617-1.446 0-2.618 1.173-2.618 2.617zM850.763 1601.062c0 1.446 1.172 2.62 2.62 2.62s2.618-1.174 2.618-2.62c0-1.445-1.17-2.617-2.618-2.617-1.447 0-2.62 1.173-2.62 2.617z"/></g></svg>