<?xml version="1.0" encoding="utf-8"?>
<!-- Generator: Adobe Illustrator 17.0.0, SVG Export Plug-In . SVG Version: 6.00 Build 0)  -->
<!DOCTYPE svg PUBLIC "-//W3C//DTD SVG 1.1//EN" "http://www.w3.org/Graphics/SVG/1.1/DTD/svg11.dtd">
<svg version="1.1" id="Layer_1" xmlns="http://www.w3.org/2000/svg" xmlns:xlink="http://www.w3.org/1999/xlink" x="0px" y="0px"
	 width="42px" height="42px" viewBox="825.84 1584 42 42" enable-background="new 825.84 1584 42 42" xml:space="preserve">
<g>
	<path fill="#4298D4" d="M846.612,1618.186c-8.017,0-11.379-7.234-11.519-7.544c-0.299-0.661-0.005-1.438,0.655-1.737
		c0.661-0.297,1.435-0.005,1.735,0.651l0,0c0.113,0.247,2.832,6.005,9.134,6.005c0.041,0,0.082-0.001,0.123-0.001
		c6.698-0.078,9.384-5.934,9.41-5.993c0.294-0.661,1.066-0.963,1.733-0.664c0.661,0.295,0.96,1.07,0.664,1.733
		c-0.135,0.304-3.415,7.451-11.777,7.549C846.718,1618.185,846.664,1618.186,846.612,1618.186z"/>
	<path fill="#4298D4" d="M846.84,1586.625c10.132,0,18.375,8.243,18.375,18.375s-8.243,18.375-18.375,18.375
		s-18.375-8.243-18.375-18.375S836.708,1586.625,846.84,1586.625 M846.84,1584c-11.599,0-21,9.402-21,21c0,11.599,9.401,21,21,21
		c11.598,0,21-9.401,21-21C867.84,1593.402,858.438,1584,846.84,1584L846.84,1584z"/>
	<path fill="#4298D4" d="M837.638,1601.062c0,1.446,1.172,2.619,2.619,2.619s2.619-1.173,2.619-2.619
		c0-1.445-1.172-2.617-2.619-2.617C838.81,1598.445,837.638,1599.618,837.638,1601.062z"/>
	<path fill="#4298D4" d="M850.763,1601.062c0,1.446,1.172,2.619,2.619,2.619s2.619-1.173,2.619-2.619
		c0-1.445-1.172-2.617-2.619-2.617C851.935,1598.445,850.763,1599.618,850.763,1601.062z"/>
</g>
</svg>
