<svg width="1279" height="707" viewBox="0 0 1279 707" xmlns="http://www.w3.org/2000/svg"><title>Laptop</title><g transform="translate(1 1)" stroke="#8492A5" fill="none" fill-rule="evenodd"><path d="M1095.892 0H181.108C156.218 0 135 20.41 135 45.692V647h1007V45.692C1142 20.41 1120.86 0 1095.892 0z" stroke-width="2" fill="#FEFEFE"/><circle stroke-width="2" cx="640.5" cy="35.5" r="7.5"/><path d="M1181.757 704.175H94.583C38.065 704.175 0 684.785 0 676.54v-25.063C0 649 2.462 647 5.523 647h1265.292c3.065 0 5.53 2 5.53 4.477v26.05c-.012 6.518-29.49 26.648-94.588 26.648z" stroke-width="2" fill="#FDFDFD"/><path d="M.922 673.734h1271.993"/><path fill="#FFF" d="M175 72h924v538H175zM777 649v5.704c0 4.068-8.002 5.296-14.06 5.296H514.433c-6.373 0-14.432-1.226-14.432-5.296V649"/></g></svg>