<?xml version="1.0" encoding="utf-8"?>
<!-- Generator: Adobe Illustrator 17.0.0, SVG Export Plug-In . SVG Version: 6.00 Build 0)  -->
<!DOCTYPE svg PUBLIC "-//W3C//DTD SVG 1.1//EN" "http://www.w3.org/Graphics/SVG/1.1/DTD/svg11.dtd">
<svg version="1.1" id="Layer_1" xmlns="http://www.w3.org/2000/svg" xmlns:xlink="http://www.w3.org/1999/xlink" x="0px" y="0px"
	 width="45px" height="45px" viewBox="0 0 45 45" enable-background="new 0 0 45 45" xml:space="preserve">
<g>
	<path fill="#4298D4" d="M17.643,9.85c4.062,0,7.659,3.427,7.659,5.493v5.932c0,2.201-0.684,6.403-3.11,8.31
		c-0.743,0.585-1.143,1.503-1.064,2.444c0.08,0.941,0.626,1.779,1.456,2.232l8.853,4.899c0.078,0.042,0.177,0.089,0.26,0.125
		c0.207,0.088,0.463,0.234,0.65,0.363v2.542H2.813v-2.512c0.202-0.147,0.483-0.317,0.706-0.418c0.066-0.03,0.132-0.062,0.195-0.098
		l9.083-4.921c0.828-0.448,1.377-1.281,1.461-2.218c0.084-0.937-0.308-1.855-1.042-2.444c-2.358-1.889-3.369-6.072-3.369-8.305
		v-5.932C9.847,13.325,13.655,9.85,17.643,9.85 M17.643,7.04c-5.246,0-10.609,4.375-10.609,8.303v5.932
		c0,2.591,1.097,7.834,4.422,10.497l-9.083,4.921c0,0-2.373,1.056-2.373,2.374v3.56C0,43.937,1.064,45,2.373,45h30.41
		c1.31,0,2.374-1.063,2.374-2.374v-3.56c0-1.397-2.374-2.374-2.374-2.374l-8.854-4.899c3.29-2.586,4.184-7.669,4.184-10.519v-5.932
		C28.114,11.415,22.89,7.04,17.643,7.04L17.643,7.04z"/>
	<path fill="#4298D4" d="M42.625,29.697l-8.985-4.899c3.29-2.586,4.316-7.669,4.316-10.519V8.347C37.956,4.419,32.601,0,27.353,0
		c-3.41,0-6.897,1.852-8.926,4.224c1.158,0.071,2.433,0.073,3.536,0.424c1.482-1.152,3.356-1.838,5.39-1.838
		c4.062,0,7.791,3.471,7.791,5.537v5.932c0,2.2-0.816,6.403-3.242,8.31c-0.743,0.585-1.143,1.502-1.064,2.444
		c0.08,0.941,0.626,1.779,1.456,2.232l8.985,4.899c0.078,0.042,0.177,0.089,0.26,0.125c0.207,0.088,0.463,0.235,0.649,0.363v2.498
		H36.51c0.857,0.646,1.117,1.571,1.449,2.81h4.666c1.31,0,2.375-1.063,2.375-2.373v-3.516C45,30.674,42.625,29.697,42.625,29.697z"
		/>
</g>
</svg>
