<svg xmlns="http://www.w3.org/2000/svg" width="45" height="45" viewBox="0 0 45 45"><g fill="#4298D4"><path d="M17.643 9.85c4.062 0 7.66 3.427 7.66 5.493v5.932c0 2.2-.685 6.403-3.11 8.31-.744.585-1.144 1.503-1.065 2.444.08.94.626 1.778 1.456 2.23l8.853 4.9c.078.042.177.09.26.125.207.088.463.234.65.363v2.542H2.813v-2.512c.202-.147.483-.317.706-.418.065-.03.13-.062.194-.098l9.083-4.92c.828-.45 1.377-1.282 1.46-2.22.085-.936-.307-1.854-1.04-2.443-2.36-1.89-3.37-6.073-3.37-8.306v-5.932c0-2.017 3.808-5.492 7.796-5.492m0-2.81c-5.246 0-10.61 4.375-10.61 8.303v5.932c0 2.59 1.098 7.834 4.423 10.497l-9.083 4.92S0 37.75 0 39.068v3.56C0 43.937 1.064 45 2.373 45h30.41c1.31 0 2.374-1.063 2.374-2.374v-3.56c0-1.397-2.374-2.374-2.374-2.374l-8.854-4.9c3.29-2.585 4.183-7.668 4.183-10.518v-5.932c0-3.927-5.223-8.302-10.47-8.302z"/><path d="M42.625 29.697l-8.985-4.9c3.29-2.585 4.316-7.668 4.316-10.518V8.346C37.956 4.42 32.6 0 27.353 0c-3.41 0-6.897 1.852-8.926 4.224 1.158.07 2.433.073 3.536.424 1.482-1.152 3.356-1.838 5.39-1.838 4.062 0 7.79 3.47 7.79 5.537v5.932c0 2.2-.815 6.402-3.24 8.31-.744.584-1.144 1.5-1.065 2.443.08.94.626 1.78 1.456 2.232l8.985 4.9c.077.04.176.088.26.124.206.087.462.234.648.362v2.498H36.51c.857.646 1.117 1.57 1.45 2.81h4.665c1.31 0 2.375-1.063 2.375-2.373V32.07c0-1.396-2.375-2.373-2.375-2.373z"/></g></svg>