<svg width="31" height="31" viewBox="0 0 31 31" xmlns="http://www.w3.org/2000/svg"><title>Fill 1412 + Fill 1413 Copy + Fill 1421 + Fill 1422</title><g fill="#E47C91" fill-rule="evenodd"><path d="M15.5 1.035c-7.977 0-14.467 6.49-14.467 14.467S7.523 29.97 15.5 29.97 29.967 23.48 29.967 15.5c0-7.977-6.49-14.467-14.467-14.467m0 29.967c-8.547 0-15.5-6.953-15.5-15.5S6.953.002 15.5.002 31 6.955 31 15.502s-6.953 15.5-15.5 15.5"/><path d="M21.152 22.023c-.128 0-.256-.05-.354-.146L9.45 10.527c-.195-.194-.195-.51 0-.706.196-.194.512-.194.707 0l11.35 11.35c.194.195.194.51 0 .707-.1.097-.227.146-.355.146"/><path d="M9.804 22.023c-.128 0-.256-.05-.354-.146-.195-.196-.195-.512 0-.707L20.8 9.82c.194-.194.51-.194.706 0 .195.196.195.513 0 .708l-11.348 11.35c-.098.096-.226.145-.354.145"/></g></svg>