<svg width="215" height="215" viewBox="0 0 215 215" xmlns="http://www.w3.org/2000/svg"><title>Rectangle 121 Copy 4</title><g fill="none" fill-rule="evenodd"><path fill="#F6F6F6" d="M-490-216H950v647H-490z"/><path fill="#FFF" d="M0 0h215v215H0z"/><path d="M57.01 98.036s22.54-6.854 52.777-6.854c30.238 0 52.778 6.765 52.778 6.765s-22.358-11.085-52.696-11.085c-30.338 0-52.86 11.174-52.86 11.174z" fill="#224B9F"/><path d="M74.656 88.437s15.002-4.56 35.128-4.56c20.127 0 35.13 4.5 35.13 4.5S130.03 81 109.838 81c-20.193 0-35.184 7.437-35.184 7.437z" fill="#6CC3DB"/><path d="M63.596 134.76h-5.23l-1.517-4.557H47.72l-1.55 4.556H40.94l9.344-25.747h3.932l9.38 25.746zm-8.08-8.788l-3.14-9.366-3.247 9.366h6.385zm18.866 8.787h-2.67c-1.803 0-3.198-.568-4.184-1.7-.866-.99-1.3-2.218-1.3-3.69v-20.358h4.69v20.07c0 1.133.554 1.7 1.66 1.7h1.804v3.977zm17.894-5.93c0 2-.77 3.542-2.31 4.627-1.442 1.013-3.33 1.52-5.663 1.52-1.756 0-3.187-.158-4.293-.47-1.395-.41-2.633-1.158-3.716-2.243l3.067-3.074c1.18 1.18 2.85 1.772 5.015 1.772 2.213 0 3.32-.65 3.32-1.953 0-1.037-.662-1.616-1.985-1.736l-2.958-.29c-3.656-.36-5.484-2.12-5.484-5.28 0-1.88.734-3.374 2.2-4.483 1.348-1.012 3.03-1.518 5.052-1.518 3.222 0 5.615.735 7.18 2.206l-2.887 2.93c-.938-.845-2.393-1.267-4.366-1.267-1.78 0-2.67.604-2.67 1.81 0 .964.65 1.506 1.95 1.627l2.957.29c3.728.36 5.592 2.205 5.592 5.532zm17.605 3.578c-1.634 1.712-3.703 2.568-6.204 2.568-2.285 0-4.15-.65-5.592-1.953-1.876-1.687-2.814-4.255-2.814-7.702 0-3.446.938-6.002 2.814-7.665 1.443-1.302 3.307-1.953 5.592-1.953 2.525 0 4.594.844 6.205 2.53l-3.174 3.184c-.914-.99-1.924-1.483-3.03-1.483-1.106 0-2.002.422-2.688 1.266-.685.842-1.028 2.217-1.028 4.12 0 1.93.343 3.316 1.028 4.16.686.843 1.582 1.265 2.688 1.265s2.116-.494 3.03-1.482l3.175 3.145zm8.37-19.707h-4.797v-3.832h4.798v3.833zm-.035 22.06h-4.69v-18.84h4.69v18.84zm20.67-7.956h-11.76c0 1.253.367 2.266 1.1 3.037.734.773 1.738 1.158 3.013 1.158 1.66 0 3.078-.59 4.257-1.772l2.85 2.785c-1.034 1.037-2.044 1.773-3.03 2.207-1.13.506-2.502.76-4.113.76-5.796 0-8.694-3.22-8.694-9.656 0-3.012.757-5.387 2.272-7.123 1.467-1.663 3.44-2.495 5.917-2.495 2.55 0 4.57.856 6.06 2.568 1.42 1.64 2.13 3.784 2.13 6.436v2.098zm-4.617-3.22c-.024-.77-.168-1.445-.433-2.024-.577-1.302-1.623-1.952-3.138-1.952s-2.562.65-3.14 1.952c-.263.58-.408 1.254-.432 2.025h7.143zm24.568 11.175h-4.69v-11.392c0-1.18-.337-2.073-1.01-2.676-.553-.506-1.25-.76-2.092-.76-.866 0-1.576.254-2.13.76-.672.603-1.01 1.495-1.01 2.676v11.39h-4.69v-18.84h4.583v1.737c1.226-1.302 2.79-1.953 4.69-1.953 1.852 0 3.33.555 4.437 1.664 1.275 1.277 1.912 3.06 1.912 5.35v12.043zm13.492 0h-2.56c-1.78 0-3.164-.568-4.15-1.7-.865-.99-1.298-2.218-1.298-3.69v-9.328h-1.985v-3.58h1.985v-5.57h4.69v5.57h3.318v3.58h-3.32v9.04c0 1.133.543 1.7 1.625 1.7h1.695v3.977z" fill="#224B9F"/></g></svg>