<svg width="215" height="215" viewBox="0 0 215 215" xmlns="http://www.w3.org/2000/svg"><title>Rectangle 121 Copy 5</title><g fill="none" fill-rule="evenodd"><path fill="#F6F6F6" d="M-735-216H705v647H-735z"/><path fill="#FFF" d="M0 0h215v215H0z"/><g fill="#2272B9"><path d="M35.802 105.56c-.275.08-.59.16-.947.234-.357.075-.73.14-1.122.195-.39.054-.79.098-1.193.132-.405.035-.793.052-1.163.052-.89 0-1.687-.13-2.386-.39-.7-.26-1.29-.632-1.77-1.117s-.847-1.073-1.1-1.763c-.254-.69-.38-1.465-.38-2.327 0-.874.11-1.663.328-2.367.22-.704.536-1.302.947-1.794.412-.492.915-.867 1.513-1.127.596-.26 1.28-.39 2.047-.39.425 0 .806.04 1.142.122.336.082.676.198 1.02.348v-4.878L35.8 90v15.56zm-6.935-5.126c0 .942.212 1.7.638 2.275.425.573 1.057.86 1.894.86.273 0 .526-.01.76-.03.233-.02.424-.045.576-.072v-5.556c-.193-.123-.443-.225-.75-.307-.31-.082-.623-.123-.937-.123-1.456 0-2.183.984-2.183 2.952zM38.167 100.598c0-.956.147-1.794.443-2.51.295-.718.682-1.316 1.162-1.795.48-.478 1.032-.84 1.656-1.086.625-.246 1.266-.37 1.925-.37 1.535 0 2.75.47 3.642 1.405.89.937 1.337 2.314 1.337 4.13 0 .18-.007.374-.02.585-.014.212-.028.4-.042.564h-6.954c.068.63.363 1.13.884 1.497.522.37 1.22.554 2.1.554.56 0 1.113-.05 1.656-.153.54-.102.983-.228 1.327-.38l.41 2.482c-.164.08-.383.162-.658.245-.274.082-.58.154-.915.215-.336.062-.696.113-1.08.154-.385.04-.77.06-1.153.06-.974 0-1.82-.142-2.54-.43-.72-.286-1.318-.678-1.79-1.178-.474-.5-.824-1.09-1.05-1.773-.227-.684-.34-1.422-.34-2.215zm7.202-1.17c-.015-.258-.06-.51-.135-.757-.076-.245-.192-.463-.35-.655-.158-.19-.357-.35-.596-.47-.242-.124-.54-.186-.897-.186-.343 0-.638.057-.884.174-.248.116-.454.27-.62.46-.164.193-.29.415-.38.667-.09.254-.154.51-.195.77h4.054zM53.657 105.907c-.703-1.366-1.415-2.966-2.138-4.797-.724-1.83-1.41-3.826-2.056-5.986h3.25c.138.534.3 1.11.487 1.732.186.622.38 1.25.58 1.887.2.635.4 1.253.6 1.855.198.6.395 1.147.588 1.64.18-.492.37-1.04.578-1.64.206-.602.41-1.22.61-1.855s.392-1.264.578-1.887c.186-.622.348-1.198.485-1.732h3.17c-.647 2.16-1.33 4.155-2.053 5.986-.722 1.83-1.434 3.43-2.136 4.797h-2.543zM61.213 100.598c0-.956.147-1.794.442-2.51.296-.718.683-1.316 1.163-1.795.48-.478 1.032-.84 1.657-1.086.624-.246 1.266-.37 1.924-.37 1.535 0 2.75.47 3.64 1.405.893.937 1.338 2.314 1.338 4.13 0 .18-.007.374-.02.585-.014.212-.028.4-.04.564H64.36c.068.63.363 1.13.884 1.497.522.37 1.22.554 2.1.554.562 0 1.114-.05 1.656-.153.542-.102.984-.228 1.327-.38l.41 2.482c-.164.08-.384.162-.658.245-.275.082-.58.154-.916.215-.336.062-.696.113-1.08.154-.384.04-.77.06-1.153.06-.974 0-1.82-.142-2.54-.43-.72-.286-1.318-.678-1.792-1.178-.472-.5-.822-1.09-1.048-1.773-.226-.684-.34-1.422-.34-2.215zm7.202-1.17c-.013-.258-.058-.51-.134-.757-.074-.244-.19-.463-.35-.655-.157-.19-.356-.35-.595-.47-.24-.124-.54-.186-.896-.186-.344 0-.64.057-.885.174-.247.116-.453.27-.617.46-.165.193-.292.415-.38.667-.09.254-.155.51-.196.77h4.053zM78.065 106.112c-.892-.014-1.615-.11-2.17-.287-.556-.178-.995-.427-1.318-.748-.322-.32-.542-.71-.66-1.17-.115-.456-.173-.973-.173-1.546V90.493L76.81 90v11.746c0 .273.02.52.063.738.04.218.12.403.236.553.116.15.284.274.504.37.22.094.514.156.884.183l-.433 2.522zM90.37 100.495c0 .848-.123 1.623-.37 2.327s-.604 1.305-1.07 1.804c-.466.498-1.025.885-1.677 1.158-.652.273-1.382.41-2.19.41-.797 0-1.52-.137-2.172-.41-.65-.273-1.21-.66-1.676-1.158-.467-.5-.83-1.1-1.09-1.804-.26-.704-.392-1.48-.392-2.327s.135-1.62.402-2.316c.268-.698.638-1.292 1.11-1.785.474-.492 1.036-.874 1.688-1.148.65-.273 1.36-.41 2.13-.41.782 0 1.5.137 2.15.41.652.274 1.21.656 1.678 1.148.466.492.83 1.086 1.09 1.784.26.696.39 1.468.39 2.315zm-3.127 0c0-.943-.19-1.684-.566-2.224-.378-.54-.916-.81-1.615-.81-.7 0-1.242.27-1.626.81-.384.54-.576 1.282-.576 2.225 0 .943.192 1.69.576 2.244.384.553.926.83 1.626.83.7 0 1.238-.277 1.615-.83.377-.553.566-1.302.566-2.245zM102.798 100.516c0 .833-.102 1.59-.308 2.275-.206.685-.508 1.272-.905 1.764-.398.492-.892.875-1.482 1.148-.59.274-1.268.41-2.036.41-.426 0-.823-.04-1.194-.123-.37-.083-.727-.2-1.07-.35v4.06h-3.066V95.493c.275-.082.59-.16.947-.236.356-.075.73-.14 1.12-.195.392-.055.79-.1 1.194-.133.405-.034.793-.05 1.163-.05.893 0 1.688.132 2.39.4.7.266 1.288.64 1.768 1.126.48.485.847 1.077 1.1 1.773.254.696.38 1.475.38 2.336zm-3.127.082c0-.943-.212-1.698-.637-2.265-.425-.567-1.057-.85-1.893-.85-.275 0-.53.01-.762.03-.233.02-.425.044-.576.072v5.514c.192.123.442.225.75.307.31.082.62.123.937.123 1.454 0 2.18-.978 2.18-2.932zM104.65 100.598c0-.956.148-1.794.443-2.51.295-.718.682-1.316 1.163-1.795.48-.478 1.032-.84 1.657-1.086.623-.246 1.265-.37 1.923-.37 1.536 0 2.75.47 3.642 1.405.892.937 1.338 2.314 1.338 4.13 0 .18-.007.374-.02.585-.014.212-.028.4-.04.564H107.8c.068.63.363 1.13.884 1.497.522.37 1.22.554 2.1.554.562 0 1.114-.05 1.656-.153.542-.102.984-.228 1.327-.38l.41 2.482c-.163.08-.383.162-.657.245-.274.082-.58.154-.916.215-.336.062-.696.113-1.08.154-.384.04-.77.06-1.152.06-.975 0-1.82-.142-2.542-.43-.72-.286-1.317-.678-1.79-1.178-.474-.5-.824-1.09-1.05-1.773-.227-.684-.34-1.422-.34-2.215zm7.202-1.17c-.013-.258-.058-.51-.134-.757-.075-.244-.192-.463-.35-.655-.158-.19-.357-.35-.596-.47-.24-.124-.54-.186-.895-.186-.344 0-.64.057-.885.174-.247.116-.453.27-.617.46-.165.193-.292.415-.38.667-.09.254-.155.51-.196.77h4.052zM123.705 97.83c-.275-.068-.597-.14-.967-.214-.37-.075-.77-.114-1.194-.114-.192 0-.42.018-.69.052-.267.034-.47.072-.606.112v8.24h-3.066V95.7c.548-.193 1.196-.373 1.945-.544.747-.17 1.58-.257 2.5-.257.164 0 .362.01.596.03.233.02.466.048.7.082.233.034.465.075.7.123.232.048.43.106.595.174l-.513 2.52zM128.334 104.8c0 .37-.123.69-.37.964s-.584.41-1.008.41c-.425 0-.762-.137-1.01-.41-.245-.273-.37-.595-.37-.964 0-.37.124-.69.37-.964.25-.273.585-.41 1.01-.41.424 0 .76.137 1.008.41.246.274.37.595.37.964zM131.132 95.555c.44-.11 1.022-.226 1.75-.35.726-.122 1.563-.183 2.51-.183.85 0 1.556.12 2.12.36.56.238 1.01.572 1.346 1.003.336.43.573.947.71 1.548.137.6.206 1.264.206 1.988v5.987h-1.914v-5.576c0-.655-.045-1.215-.134-1.68-.09-.464-.236-.84-.442-1.127-.206-.287-.48-.495-.823-.625-.342-.13-.768-.195-1.275-.195-.205 0-.418.008-.638.02-.22.014-.43.03-.627.052-.2.02-.378.044-.536.072l-.34.06v9h-1.913V95.555h.002zM142.944 105.907v-15.58l1.913-.327v5.452c.356-.136.737-.242 1.14-.317.406-.075.807-.112 1.205-.112.85 0 1.557.12 2.12.358.562.24 1.01.575 1.347 1.006.335.43.572.947.71 1.548.136.6.205 1.264.205 1.988v5.986h-1.914v-5.577c0-.655-.044-1.215-.133-1.68-.09-.464-.236-.84-.442-1.127-.206-.287-.48-.495-.823-.625-.343-.13-.77-.195-1.276-.195-.205 0-.418.014-.638.04-.22.03-.43.06-.627.093-.198.035-.377.072-.535.113-.157.04-.27.074-.34.102v8.856h-1.91zM157.183 104.534c.78 0 1.36-.103 1.738-.308.378-.205.566-.533.566-.984 0-.464-.185-.833-.556-1.106-.37-.274-.98-.58-1.83-.923-.412-.164-.806-.33-1.184-.502-.378-.17-.703-.37-.978-.604-.274-.232-.493-.512-.658-.84-.165-.33-.247-.73-.247-1.21 0-.943.35-1.69 1.05-2.244.7-.554 1.652-.83 2.86-.83.3 0 .603.017.905.05.3.035.582.076.843.124.262.048.49.1.69.153.2.054.354.102.464.142l-.35 1.64c-.206-.11-.528-.22-.968-.338-.438-.117-.966-.175-1.584-.175-.535 0-1 .106-1.4.317-.396.212-.595.544-.595.994 0 .234.044.44.134.616.09.178.227.34.412.482.186.143.415.277.69.4.274.123.603.253.987.39.507.19.96.38 1.357.563.398.186.738.4 1.02.647.28.246.496.543.647.892.15.347.226.774.226 1.28 0 .984-.367 1.73-1.1 2.234-.735.506-1.78.758-3.14.758-.945 0-1.686-.078-2.22-.235-.537-.157-.9-.277-1.092-.36l.35-1.64c.22.083.57.206 1.05.37.48.165 1.118.247 1.915.247zM166.133 104.8c0 .37-.123.69-.37.964s-.583.41-1.008.41c-.425 0-.762-.137-1.008-.41-.247-.273-.37-.595-.37-.964 0-.37.123-.69.37-.964.247-.273.583-.41 1.008-.41.425 0 .762.137 1.008.41.247.274.37.595.37.964zM177.45 105.6c-.44.11-1.018.225-1.738.348-.72.123-1.555.184-2.5.184-.823 0-1.516-.12-2.078-.358-.563-.24-1.016-.577-1.358-1.015-.343-.438-.59-.954-.74-1.55-.152-.593-.228-1.253-.228-1.977v-5.986h1.915v5.576c0 1.3.205 2.228.616 2.788.41.56 1.103.84 2.077.84.206 0 .42-.006.64-.02.218-.012.424-.03.616-.05.192-.02.367-.042.525-.062.157-.02.27-.045.34-.072v-8.998h1.913v10.35zM184.61 100.044c.412.315.848.704 1.307 1.17.46.464.912.966 1.358 1.506.446.54.868 1.086 1.266 1.64.4.553.735 1.07 1.01 1.548h-2.244c-.288-.48-.62-.967-.997-1.466-.38-.5-.773-.977-1.185-1.435-.41-.458-.83-.878-1.255-1.26-.426-.383-.83-.704-1.215-.965v5.125h-1.913v-15.58l1.913-.327v9.716l1.09-1.086c.398-.396.79-.8 1.174-1.21.382-.41.746-.803 1.09-1.18.342-.374.637-.706.884-.993h2.243c-.316.342-.66.717-1.03 1.127-.37.41-.754.823-1.152 1.24-.398.417-.8.834-1.204 1.25l-1.14 1.18z"/></g><g fill="#848585"><path d="M31.21 114.294v.975h-2.54v7.07h-1.13v-7.07H25v-.976h6.21zM32.33 122.34v-8.824l1.084-.186v3.088c.202-.077.418-.137.647-.18.23-.042.457-.064.682-.064.482 0 .88.068 1.2.203.32.136.573.326.764.57.19.243.324.535.402.876.078.34.116.716.116 1.126v3.39H36.14v-3.16c0-.37-.025-.688-.076-.95-.05-.264-.134-.477-.25-.64-.117-.16-.272-.28-.466-.353-.195-.073-.435-.11-.722-.11-.117 0-.237.008-.362.023-.124.016-.242.033-.355.052-.114.02-.215.04-.304.064-.09.023-.153.043-.192.058v5.015H32.33zM38.646 119.332c0-.534.078-1 .233-1.4.155-.398.36-.728.617-.99.256-.264.55-.46.886-.593.334-.133.676-.198 1.025-.198.816 0 1.44.254 1.877.76.435.507.652 1.28.652 2.316v.18c0 .074-.003.14-.012.203h-4.148c.046.628.23 1.104.547 1.43.32.324.816.487 1.492.487.38 0 .7-.033.96-.1.262-.065.458-.13.59-.19l.152.905c-.133.07-.364.143-.694.22-.33.078-.705.117-1.124.117-.528 0-.984-.08-1.37-.24-.384-.158-.7-.377-.95-.656-.248-.278-.432-.61-.553-.992-.12-.384-.18-.803-.18-1.26zm4.16-.592c.008-.487-.115-.888-.367-1.2-.254-.315-.6-.47-1.044-.47-.25 0-.468.048-.658.144-.19.097-.352.222-.484.377-.132.156-.235.334-.31.535-.073.2-.12.406-.144.615h3.006zM53.34 114.294h1.132v8.045h-1.13v-3.716h-3.95v3.715H48.26v-8.046h1.13v3.355h3.95v-3.356zM56.068 119.332c0-.534.077-1 .233-1.4.156-.398.362-.728.618-.99.256-.264.552-.46.886-.593.333-.133.675-.198 1.026-.198.816 0 1.44.254 1.876.76.435.507.653 1.28.653 2.316v.18c0 .074-.006.14-.014.203h-4.148c.046.628.23 1.104.547 1.43.32.324.817.487 1.493.487.38 0 .7-.033.96-.1.26-.065.458-.13.59-.19l.15.905c-.132.07-.363.143-.693.22-.33.078-.705.117-1.124.117-.528 0-.984-.08-1.37-.24-.384-.158-.7-.377-.95-.656-.248-.278-.43-.61-.55-.992-.122-.384-.182-.803-.182-1.26zm4.16-.592c.008-.487-.115-.888-.367-1.2-.25-.315-.598-.47-1.042-.47-.248 0-.468.048-.658.144-.19.097-.352.222-.484.377-.13.156-.236.333-.31.535-.072.2-.12.406-.145.615h3.008zM64.878 116.15c.435 0 .802.057 1.102.17.3.112.54.27.722.476.182.205.312.448.39.73.078.283.117.595.117.935v3.774l-.392.064c-.167.027-.355.052-.564.076-.21.023-.438.044-.682.064-.245.02-.488.028-.73.028-.34 0-.655-.035-.943-.104-.288-.07-.537-.18-.746-.33-.21-.152-.373-.35-.49-.6-.116-.247-.174-.544-.174-.893 0-.334.068-.62.204-.86.136-.24.32-.434.553-.58.234-.148.505-.257.817-.326.31-.07.636-.105.98-.105.107 0 .22.005.336.017.117.012.228.027.332.046l.275.052c.077.016.132.027.163.035v-.302c0-.178-.02-.354-.06-.528-.038-.174-.107-.33-.208-.464-.1-.136-.24-.244-.414-.326-.175-.08-.402-.122-.682-.122-.357 0-.67.026-.938.076-.268.05-.468.103-.6.157l-.128-.893c.14-.062.373-.122.7-.18.324-.057.678-.086 1.058-.086zm.093 5.41c.257 0 .484-.004.683-.016.198-.012.363-.033.495-.064v-1.8c-.077-.038-.204-.07-.38-.098-.173-.027-.385-.04-.633-.04-.164 0-.337.01-.52.034-.182.023-.35.072-.5.145-.152.075-.278.176-.38.303-.1.128-.15.296-.15.505 0 .388.123.656.373.807.248.15.586.226 1.013.226zM70.822 122.455c-.668-.016-1.142-.158-1.423-.43-.28-.27-.42-.692-.42-1.265v-7.244l1.084-.186v7.256c0 .178.016.325.047.44.032.118.082.21.152.28.07.07.163.122.28.157.117.035.26.064.43.087l-.15.905zM73.2 116.302h2.295v.905H73.2v2.787c0 .302.023.55.07.748.046.198.116.353.21.465.09.112.208.192.35.238.14.046.3.07.488.07.326 0 .59-.038.786-.11.198-.074.336-.126.414-.158l.21.894c-.11.056-.3.123-.57.204-.273.082-.584.122-.933.122-.412 0-.75-.052-1.02-.156-.268-.104-.484-.26-.647-.47-.163-.21-.277-.466-.344-.772-.065-.306-.098-.66-.098-1.062v-5.387l1.084-.187v1.87zM76.87 122.34v-8.824l1.084-.186v3.088c.2-.077.417-.137.646-.18.23-.042.457-.064.682-.064.482 0 .88.068 1.2.203.32.136.573.326.764.57.19.243.324.535.402.876.077.34.117.716.117 1.126v3.39H80.68v-3.16c0-.37-.025-.688-.075-.95-.05-.264-.134-.477-.25-.64-.117-.16-.273-.28-.466-.353-.196-.073-.436-.11-.724-.11-.116 0-.237.008-.36.023-.125.016-.244.033-.356.052-.113.02-.214.04-.303.064-.09.023-.153.043-.192.058v5.015H76.87zM92.916 118.31c0 .697-.11 1.303-.327 1.817-.22.515-.525.94-.92 1.277-.398.337-.872.588-1.423.754-.553.167-1.16.25-1.818.25-.328 0-.687-.014-1.08-.04-.392-.03-.747-.08-1.065-.157v-7.8c.318-.078.673-.13 1.066-.157.393-.027.752-.04 1.08-.04.66 0 1.265.083 1.817.25.55.166 1.025.417 1.422.754.395.337.7.762.92 1.277.217.514.326 1.12.326 1.816zm-4.394 3.112c1.073 0 1.873-.273 2.4-.82.53-.544.794-1.31.794-2.292 0-.982-.265-1.747-.793-2.292-.528-.546-1.328-.82-2.4-.82-.32 0-.566.005-.74.013-.175.01-.298.016-.368.024v6.153c.07.007.193.016.367.023.175.008.422.012.74.012zM94.186 119.332c0-.534.078-1 .233-1.4.155-.398.36-.728.617-.99.256-.264.552-.46.885-.593.334-.133.676-.198 1.026-.198.816 0 1.44.254 1.876.76.435.507.653 1.28.653 2.316v.18c0 .074-.004.14-.012.203h-4.15c.048.628.23 1.104.55 1.43.318.324.815.487 1.49.487.38 0 .702-.033.962-.1.26-.065.457-.13.59-.19l.15.905c-.133.07-.363.143-.693.22-.33.078-.706.117-1.125.117-.53 0-.986-.08-1.37-.24-.385-.158-.702-.377-.95-.656-.25-.278-.434-.61-.554-.992-.12-.384-.18-.803-.18-1.26zm4.16-.592c.01-.487-.114-.888-.366-1.2-.253-.315-.6-.47-1.043-.47-.25 0-.468.048-.66.144-.19.097-.35.222-.483.377-.132.156-.235.334-.308.535-.074.2-.123.406-.146.615h3.007zM105.77 116.302c-.302 1.13-.658 2.214-1.066 3.25-.407 1.038-.802 1.967-1.183 2.787h-.978c-.38-.82-.774-1.75-1.183-2.788-.41-1.036-.764-2.12-1.067-3.25h1.165c.093.38.204.784.332 1.213.128.43.264.856.407 1.277.144.422.29.83.438 1.225.147.394.287.747.42 1.056.13-.31.27-.662.418-1.056.148-.395.294-.803.437-1.225.144-.422.28-.848.408-1.277.128-.43.24-.834.332-1.213h1.12zM106.388 119.332c0-.534.077-1 .232-1.4.156-.398.362-.728.618-.99.256-.264.552-.46.886-.593.333-.133.675-.198 1.025-.198.816 0 1.44.254 1.875.76.435.507.653 1.28.653 2.316v.18c0 .074-.004.14-.012.203h-4.148c.046.628.23 1.104.547 1.43.32.324.816.487 1.492.487.38 0 .7-.033.96-.1.262-.065.458-.13.59-.19l.15.905c-.13.07-.362.143-.692.22-.33.078-.705.117-1.125.117-.528 0-.985-.08-1.37-.24-.384-.158-.7-.377-.95-.656-.25-.278-.432-.61-.553-.992-.12-.384-.18-.803-.18-1.26zm4.16-.592c.008-.487-.115-.888-.367-1.2-.25-.315-.6-.47-1.042-.47-.248 0-.468.048-.66.144-.19.097-.35.222-.482.377-.133.156-.236.334-.31.535-.073.2-.12.406-.145.615h3.008zM115.058 122.455c-.668-.016-1.142-.158-1.422-.43-.28-.27-.42-.692-.42-1.265v-7.244l1.085-.186v7.256c0 .178.016.325.047.44.03.118.082.21.15.28.07.07.165.122.28.157.118.035.26.064.432.087l-.152.905zM121.77 119.32c0 .48-.07.914-.21 1.3-.14.39-.335.72-.587 1-.252.278-.553.493-.903.644-.35.15-.73.226-1.142.226-.41 0-.792-.076-1.142-.226-.35-.15-.65-.366-.902-.645-.253-.28-.45-.612-.59-1-.14-.386-.208-.82-.208-1.3 0-.47.07-.903.21-1.294.14-.39.335-.725.588-1.003.252-.28.554-.494.902-.645.35-.15.73-.226 1.142-.226.412 0 .793.076 1.142.226.35.15.65.366.903.645.252.278.45.613.588 1.003.14.39.21.822.21 1.295zm-1.13 0c0-.68-.153-1.22-.46-1.62-.306-.398-.724-.597-1.252-.597-.53 0-.946.2-1.253.598-.307.4-.46.94-.46 1.62 0 .682.153 1.222.46 1.62.307.398.724.598 1.253.598.528 0 .946-.2 1.253-.598.307-.4.46-.94.46-1.62zM128.634 119.332c0 .457-.06.88-.18 1.266s-.298.72-.53.998c-.233.278-.52.495-.857.65-.338.155-.724.233-1.16.233-.35 0-.658-.048-.926-.14-.267-.093-.467-.182-.6-.268v2.416h-1.083v-8c.256-.062.576-.13.96-.204.385-.073.83-.11 1.335-.11.466 0 .886.074 1.26.22.372.148.69.357.954.628.264.27.468.602.612.992.145.39.216.83.216 1.318zm-1.13 0c0-.704-.175-1.246-.525-1.626-.35-.38-.816-.57-1.4-.57-.326.002-.58.013-.763.037-.182.023-.328.05-.436.08v3.808c.133.11.323.214.572.315.248.1.52.15.815.15.31 0 .578-.056.798-.168.222-.112.402-.267.542-.464.14-.198.24-.43.303-.697.063-.266.094-.554.094-.864zM129.823 119.332c0-.534.078-1 .233-1.4.156-.398.36-.728.618-.99.256-.264.55-.46.885-.593.333-.133.675-.198 1.025-.198.816 0 1.44.254 1.876.76.436.507.654 1.28.654 2.316v.18c0 .074-.004.14-.012.203h-4.15c.048.628.23 1.104.55 1.43.318.324.815.487 1.49.487.38 0 .702-.033.962-.1.26-.065.457-.13.588-.19l.152.905c-.133.07-.364.143-.694.22-.33.078-.705.117-1.124.117-.53 0-.985-.08-1.37-.24-.384-.158-.7-.377-.95-.656-.25-.278-.433-.61-.553-.992-.12-.384-.18-.803-.18-1.26zm4.16-.592c.008-.487-.115-.888-.367-1.2-.252-.315-.6-.47-1.043-.47-.248 0-.468.048-.66.144-.19.097-.35.222-.482.377-.132.156-.235.334-.308.535-.074.2-.122.406-.146.615h3.007zM138.913 116.174c.093 0 .2.006.32.018.12.012.24.027.356.046l.32.058c.096.02.17.037.215.052l-.186.94c-.087-.03-.228-.067-.427-.11-.197-.042-.453-.064-.763-.064-.202 0-.403.022-.6.064-.198.043-.328.072-.39.088v5.073h-1.084v-5.782c.255-.093.574-.18.954-.262.382-.08.81-.122 1.283-.122zM149.47 122.34c-.17-.287-.366-.61-.588-.965-.22-.356-.46-.726-.717-1.11-.256-.382-.522-.77-.797-1.166-.276-.395-.55-.776-.822-1.144-.272-.368-.536-.715-.793-1.04-.256-.325-.493-.61-.71-.86v6.28h-1.108v-8.042h.897c.365.387.756.837 1.17 1.352.417.515.83 1.045 1.237 1.59.406.546.792 1.082 1.152 1.608.362.527.667.995.916 1.405v-5.956h1.107v8.045h-.944zM152.012 119.332c0-.534.078-1 .232-1.4.156-.398.362-.728.618-.99.256-.264.552-.46.886-.593.333-.133.675-.198 1.025-.198.817 0 1.442.254 1.876.76.434.507.652 1.28.652 2.316v.18c0 .074-.004.14-.012.203h-4.148c.046.628.23 1.104.547 1.43.318.324.816.487 1.49.487.38 0 .702-.033.962-.1.26-.065.457-.13.59-.19l.15.905c-.132.07-.363.143-.693.22-.33.078-.706.117-1.125.117-.53 0-.985-.08-1.37-.24-.385-.158-.7-.377-.95-.656-.25-.278-.433-.61-.554-.992-.12-.384-.178-.803-.178-1.26zm4.16-.592c.008-.487-.115-.888-.367-1.2-.252-.315-.6-.47-1.043-.47-.248 0-.468.048-.66.144-.19.097-.35.222-.482.377-.133.156-.236.334-.31.535-.073.2-.12.406-.145.615h3.007zM159.878 116.302h2.295v.905h-2.295v2.787c0 .302.023.55.07.748.046.198.116.353.21.465.092.112.21.192.35.238.14.046.3.07.488.07.327 0 .59-.038.786-.11.2-.074.337-.126.415-.158l.21.894c-.11.056-.3.123-.572.204-.27.082-.583.122-.932.122-.412 0-.75-.052-1.02-.156-.267-.104-.483-.26-.646-.47-.164-.21-.278-.466-.344-.772-.066-.306-.1-.66-.1-1.062v-5.387l1.085-.187v1.87zM168.502 122.34c-.22-.56-.45-1.195-.694-1.91-.245-.717-.468-1.462-.67-2.236-.202.774-.423 1.52-.664 2.235-.24.715-.47 1.35-.688 1.91h-.944c-.357-.798-.707-1.707-1.05-2.73-.34-1.02-.663-2.124-.966-3.308h1.165c.08.364.172.76.28 1.184.11.426.223.852.344 1.277.12.426.248.836.38 1.23.132.396.256.74.373 1.034.13-.364.262-.75.39-1.155.128-.406.25-.816.367-1.23.117-.415.227-.82.332-1.22.105-.4.196-.772.274-1.12h.898c.07.348.155.722.256 1.12.1.4.21.805.327 1.22.117.414.24.824.368 1.23s.258.79.39 1.155c.117-.294.24-.638.367-1.033.128-.395.255-.805.38-1.23.124-.426.24-.852.35-1.278.108-.425.2-.82.28-1.184h1.117c-.303 1.184-.625 2.287-.967 3.31-.342 1.02-.692 1.93-1.05 2.727h-.943zM177.813 119.32c0 .48-.07.914-.21 1.3-.14.39-.336.72-.588 1-.253.278-.554.493-.903.644-.35.15-.73.226-1.142.226-.412 0-.792-.076-1.142-.226-.35-.15-.65-.366-.903-.645-.252-.28-.448-.612-.588-1-.14-.386-.21-.82-.21-1.3 0-.47.07-.903.21-1.294.14-.39.336-.725.588-1.003.253-.28.554-.494.903-.645.35-.15.73-.226 1.142-.226.412 0 .793.076 1.142.226.35.15.65.366.903.645.252.278.45.613.588 1.003.14.39.21.822.21 1.295zm-1.13 0c0-.68-.154-1.22-.46-1.62-.308-.398-.725-.597-1.254-.597-.53 0-.947.2-1.254.598-.306.4-.46.94-.46 1.62 0 .682.154 1.222.46 1.62.307.398.725.598 1.253.598.528 0 .945-.2 1.252-.598.307-.4.46-.94.46-1.62zM181.577 116.174c.093 0 .2.006.32.018.12.012.24.027.356.046.116.02.222.04.32.058.097.02.17.037.216.052l-.187.94c-.086-.03-.228-.067-.426-.11-.198-.042-.453-.064-.764-.064-.2 0-.402.022-.6.064-.198.043-.328.072-.39.088v5.073h-1.084v-5.782c.255-.093.574-.18.954-.262.38-.08.81-.122 1.283-.122zM186.028 119.02c.233.177.48.398.74.66.26.264.517.548.77.854.252.306.49.615.717.928.224.314.415.606.57.877h-1.27c-.163-.272-.35-.55-.565-.83-.213-.284-.436-.554-.67-.814-.232-.26-.47-.497-.71-.714-.24-.216-.47-.398-.688-.546v2.903h-1.084v-8.824l1.084-.186v5.503l.617-.615c.224-.224.446-.453.664-.685.217-.232.423-.455.617-.667.196-.213.362-.4.502-.564h1.27c-.18.194-.372.407-.583.64-.21.23-.428.465-.653.7-.225.237-.453.473-.682.71-.23.235-.445.457-.647.667z"/></g></g></svg>