<?xml version="1.0" encoding="UTF-8" standalone="no"?>
<svg width="215px" height="215px" viewBox="0 0 215 215" version="1.1" xmlns="http://www.w3.org/2000/svg" xmlns:xlink="http://www.w3.org/1999/xlink" xmlns:sketch="http://www.bohemiancoding.com/sketch/ns">
    <!-- Generator: Sketch 3.4.4 (17249) - http://www.bohemiancoding.com/sketch -->
    <title>Rectangle 121</title>
    <desc>Created with Sketch.</desc>
    <defs></defs>
    <g id="Page-1" stroke="none" stroke-width="1" fill="none" fill-rule="evenodd" sketch:type="MSPage">
        <g id="BC_Case_study-Copy" sketch:type="MSArtboardGroup" transform="translate(-245.000000, -2644.000000)">
            <rect id="Rectangle-120" fill="#F6F6F6" sketch:type="MSShapeGroup" x="0" y="2428" width="1440" height="647"></rect>
            <rect id="Rectangle-121" fill="#FFFFFF" sketch:type="MSShapeGroup" x="245" y="2644" width="215" height="215"></rect>
            <g id="geoSlam_logo" sketch:type="MSLayerGroup" transform="translate(305.000000, 2704.000000)">
                <rect id="Rectangle-path" fill="#F39200" sketch:type="MSShapeGroup" x="0" y="0" width="96" height="96"></rect>
                <path d="M72.5204819,64.3084337 C67.6626506,64.3084337 63.8457831,60.4915663 63.8457831,55.5180723 L63.8457831,55.5180723 C63.8457831,50.4289157 67.6626506,46.6120482 72.5204819,46.6120482 C77.3783133,46.6120482 81.1951807,50.4289157 81.1951807,55.5180723 C81.1951807,60.6072289 77.3783133,64.3084337 72.5204819,64.3084337 M40.3662651,54.4771084 L40.3662651,54.3614458 C40.4819277,52.3951807 41.2915663,50.313253 43.026506,48.5783133 C46.3807229,45.1084337 51.4698795,45.339759 54.0144578,47.653012 L42.1012048,59.6819277 C40.9445783,58.2939759 40.3662651,56.4433735 40.3662651,54.4771084 M72.5204819,41.8698795 C63.9614458,41.8698795 58.9879518,48.5783133 58.9879518,55.286747 L58.9879518,55.286747 L58.9879518,55.7493976 C58.9879518,57.3686747 58.8722892,59.2192771 56.4433735,61.7638554 C53.6674699,64.6554217 48.5783133,65.9277108 44.7614458,62.4578313 L60.260241,46.9590361 C57.4843373,43.6048193 53.7831325,41.7542169 49.5036145,41.6385542 C46.0337349,41.6385542 42.7951807,43.026506 40.1349398,45.686747 C39.7879518,46.0337349 39.5566265,46.3807229 39.2096386,46.7277108 C38.2843373,44.8771084 37.0120482,43.2578313 35.8554217,42.1012048 L23.0168675,54.939759 L25.6771084,57.6 L34.6987952,48.5783133 C35.8554217,50.313253 36.3180723,52.5108434 35.9710843,54.7084337 C35.739759,56.9060241 34.5831325,59.1036145 32.7325301,61.0698795 C28.8,65.0024096 22.2072289,65.8120482 17.1180723,60.7228916 C12.260241,55.8650602 12.9542169,49.1566265 16.886747,45.2240964 C18.6216867,43.4891566 20.5879518,42.5638554 22.6698795,42.2168675 C23.9421687,41.9855422 25.2144578,42.1012048 26.6024096,42.2168675 L30.3036145,38.5156627 C25.2144578,36.4337349 18.5060241,37.7060241 13.9951807,42.2168675 C7.98072289,48.4626506 7.63373494,57.946988 13.8795181,64.1927711 C20.0096386,70.3228916 29.4939759,70.3228916 35.739759,64.0771084 C36.4337349,63.3831325 37.1277108,62.4578313 37.8216867,61.5325301 C38.4,62.6891566 39.2096386,63.8457831 40.2506024,64.7710843 C44.9927711,69.513253 53.4361446,70.6698795 59.4506024,64.7710843 C60.1445783,64.0771084 60.7228916,63.3831325 61.1855422,62.6891566 C63.3831325,66.2746988 67.3156627,68.8192771 72.6361446,68.8192771 C81.1951807,68.8192771 86.1686747,62.226506 86.1686747,55.4024096 C86.053012,48.5783133 81.0795181,41.8698795 72.5204819,41.8698795" id="Shape" fill="#FFFFFF" sketch:type="MSShapeGroup"></path>
                <path d="M16.539759,81.8891566 C16.6554217,83.9710843 18.1590361,84.4337349 18.9686747,84.4337349 C20.2409639,84.4337349 21.2819277,83.3927711 21.2819277,82.2361446 C21.2819277,80.6168675 19.8939759,80.2698795 18.1590361,79.6915663 C17.0024096,79.3445783 14.573494,78.5349398 14.573494,75.8746988 C14.573494,73.2144578 16.7710843,71.826506 18.9686747,71.826506 C20.8192771,71.826506 23.0168675,72.8674699 23.2481928,75.7590361 L21.0506024,75.7590361 C20.9349398,74.9493976 20.5879518,73.7927711 18.9686747,73.7927711 C17.8120482,73.7927711 16.886747,74.6024096 16.886747,75.7590361 C16.886747,77.146988 17.9277108,77.4939759 20.2409639,78.3036145 C21.9759036,78.9975904 23.5951807,79.9228916 23.5951807,82.2361446 C23.5951807,84.5493976 22.0915663,86.5156627 19.0843373,86.5156627 C16.3084337,86.5156627 14.4578313,84.7807229 14.4578313,82.1204819 L16.539759,82.1204819 L16.539759,81.8891566 Z" id="Shape" fill="#FFFFFF" sketch:type="MSShapeGroup"></path>
                <path d="M31.5759036,72.0578313 L33.8891566,72.0578313 L33.8891566,84.086747 L38.8626506,84.086747 L38.8626506,86.053012 L31.5759036,86.053012 L31.5759036,72.0578313 Z" id="Shape" fill="#FFFFFF" sketch:type="MSShapeGroup"></path>
                <path d="M52.1638554,74.6024096 L49.7349398,80.9638554 L54.4771084,80.9638554 L52.1638554,74.6024096 L52.1638554,74.6024096 Z M47.8843373,86.053012 L45.4554217,86.053012 L51.2385542,71.9421687 L53.2048193,71.9421687 L58.8722892,86.053012 L56.4433735,86.053012 L55.0554217,82.6987952 L49.0409639,82.6987952 L47.8843373,86.053012 L47.8843373,86.053012 Z" id="Shape" fill="#FFFFFF" sketch:type="MSShapeGroup"></path>
                <path d="M66.0433735,86.053012 L66.0433735,72.0578313 L69.1662651,72.0578313 L73.5614458,82.9301205 L77.8409639,72.0578313 L80.9638554,72.0578313 L80.9638554,86.053012 L78.8819277,86.053012 L78.8819277,74.2554217 L74.2554217,86.053012 L72.7518072,86.053012 L68.1253012,74.2554217 L68.1253012,86.053012 L66.0433735,86.053012 Z" id="Shape" fill="#FFFFFF" sketch:type="MSShapeGroup"></path>
                <path d="M85.7060241,41.7542169 L85.5903614,40.3662651 L85.5903614,39.6722892 L85.5903614,39.6722892 C85.4746988,39.9036145 85.4746988,40.1349398 85.3590361,40.3662651 L84.8963855,41.7542169 L84.4337349,41.7542169 L83.9710843,40.3662651 C83.9710843,40.1349398 83.8554217,39.9036145 83.8554217,39.6722892 L83.8554217,39.6722892 L83.8554217,40.3662651 L83.739759,41.7542169 L83.2771084,41.7542169 L83.5084337,39.3253012 L84.2024096,39.3253012 L84.6650602,40.4819277 C84.6650602,40.713253 84.7807229,40.8289157 84.7807229,41.060241 L84.7807229,41.060241 C84.8963855,40.8289157 84.8963855,40.5975904 84.8963855,40.4819277 L85.3590361,39.3253012 L86.053012,39.3253012 L86.2843373,41.7542169 L85.7060241,41.7542169 L85.7060241,41.7542169 Z M83.0457831,39.3253012 L83.0457831,39.7879518 L82.2361446,39.7879518 L82.2361446,41.8698795 L81.773494,41.8698795 L81.773494,39.7879518 L80.9638554,39.7879518 L80.9638554,39.3253012 L83.0457831,39.3253012 L83.0457831,39.3253012 Z" id="Shape" fill="#FFFFFF" sketch:type="MSShapeGroup"></path>
            </g>
        </g>
    </g>
</svg>