<svg xmlns="http://www.w3.org/2000/svg" width="235" height="235" viewBox="0 0 235 235"><path fill-rule="evenodd" clip-rule="evenodd" fill="#3D9BDD" d="M0 0h235v235H0V0z"/><path fill="none" d="M60.07 158.12h117.906v27.57H60.07z"/><text transform="translate(60.07 178.13)" fill="#FFF" font-family="'ProximaNova-Light'" font-size="30">Structure</text><g fill-rule="evenodd" clip-rule="evenodd" fill="#FFF"><path d="M149.88 57.75h-64c-2.21 0-4 1.79-4 4v64c0 2.21 1.79 4 4 4h64c2.21 0 4-1.79 4-4v-64c0-2.21-1.79-4-4-4zm-1.156 65.344c0 .828-.672 1.5-1.5 1.5H88.536c-.828 0-1.5-.672-1.5-1.5V64.406c0-.828.672-1.5 1.5-1.5h58.687c.828 0 1.5.672 1.5 1.5v58.688z"/><path d="M97.318 73.188h15.406v15.406H97.318V73.188zM123.036 73.188h15.406v15.406h-15.406V73.188zM97.31 98.893h15.428v15.43h-15.43v-15.43zM123.023 98.893h15.43v15.43h-15.43v-15.43z"/></g></svg>