<?xml version="1.0" encoding="utf-8"?>
<!-- Generator: Adobe Illustrator 17.0.0, SVG Export Plug-In . SVG Version: 6.00 Build 0)  -->
<!DOCTYPE svg PUBLIC "-//W3C//DTD SVG 1.1//EN" "http://www.w3.org/Graphics/SVG/1.1/DTD/svg11.dtd">
<svg version="1.1" id="Layer_1" xmlns="http://www.w3.org/2000/svg" xmlns:xlink="http://www.w3.org/1999/xlink" x="0px" y="0px"
	 width="235px" height="235px" viewBox="0 0 235 235" enable-background="new 0 0 235 235" xml:space="preserve">
<path fill-rule="evenodd" clip-rule="evenodd" fill="#3D9BDD" d="M0,0h235v235H0V0z"/>
<rect x="60.069" y="158.12" fill="none" width="117.907" height="27.569"/>
<text transform="matrix(1 0 0 1 60.0695 178.1291)" fill="#FFFFFF" font-family="'ProximaNova-Light'" font-size="30">Structure</text>
<g>
	<path fill-rule="evenodd" clip-rule="evenodd" fill="#FFFFFF" d="M149.88,57.75h-64c-2.209,0-4,1.791-4,4v64c0,2.209,1.791,4,4,4
		h64c2.209,0,4-1.791,4-4v-64C153.88,59.541,152.089,57.75,149.88,57.75z M148.724,123.094c0,0.828-0.672,1.5-1.5,1.5H88.536
		c-0.828,0-1.5-0.672-1.5-1.5V64.406c0-0.828,0.672-1.5,1.5-1.5h58.687c0.828,0,1.5,0.672,1.5,1.5V123.094z"/>
	<path fill-rule="evenodd" clip-rule="evenodd" fill="#FFFFFF" d="M97.318,73.188h15.406v15.406H97.318V73.188z"/>
	<path fill-rule="evenodd" clip-rule="evenodd" fill="#FFFFFF" d="M123.036,73.188h15.406v15.406h-15.406V73.188z"/>
	<path fill-rule="evenodd" clip-rule="evenodd" fill="#FFFFFF" d="M97.309,98.893h15.429v15.429H97.309V98.893z"/>
	<path fill-rule="evenodd" clip-rule="evenodd" fill="#FFFFFF" d="M123.023,98.893h15.429v15.429h-15.429V98.893z"/>
</g>
</svg>
