<svg xmlns="http://www.w3.org/2000/svg" width="72.493" height="48" viewBox="0 0 72.493 48"><path fill="#4199D5" d="M67.98 3c.83 0 1.504.672 1.504 1.5v39c0 .828-.674 1.5-1.505 1.5H49.91c-.83 0-1.506-.672-1.506-1.5v-39c0-.828.674-1.5 1.505-1.5h18.07m0-3H49.91c-2.495 0-4.515 2.014-4.515 4.5v39c0 2.486 2.02 4.5 4.514 4.5h18.07c2.493 0 4.513-2.014 4.513-4.5v-39c0-2.486-2.02-4.5-4.514-4.5z"/><path fill="#4199D5" d="M55.455 40.5c0 1.652 1.344 2.993 3.002 2.993 1.66 0 3.002-1.34 3.002-2.993 0-1.65-1.344-2.992-3.003-2.992-1.658 0-3.002 1.34-3.002 2.992z"/><path fill-rule="evenodd" clip-rule="evenodd" fill="#4199D5" d="M55.448 4.5h6.02c.83 0 1.504.67 1.504 1.5 0 .828-.674 1.5-1.505 1.5h-6.02c-.83 0-1.504-.672-1.504-1.5 0-.83.674-1.5 1.505-1.5z"/><path fill="#4199D5" d="M45.143 9.732v25.51H3.01V9.73h42.133m0-3H3.01c-1.655 0-3.01 1.35-3.01 3v25.51c0 1.648 1.355 3 3.01 3h42.133c1.655 0 3.01-1.35 3.01-3V9.73c0-1.65-1.355-3-3.01-3z"/><path fill-rule="evenodd" clip-rule="evenodd" fill="#4199D5" d="M25.58 36.75v6h7.525c.83 0 1.505.672 1.505 1.5s-.674 1.5-1.505 1.5H15.048c-.83 0-1.505-.67-1.505-1.5 0-.828.674-1.5 1.505-1.5h7.524v-6h3.01z"/></svg>