<?xml version="1.0" encoding="utf-8"?>
<!-- Generator: Adobe Illustrator 17.0.0, SVG Export Plug-In . SVG Version: 6.00 Build 0)  -->
<!DOCTYPE svg PUBLIC "-//W3C//DTD SVG 1.1//EN" "http://www.w3.org/Graphics/SVG/1.1/DTD/svg11.dtd">
<svg version="1.1" id="Layer_1" xmlns="http://www.w3.org/2000/svg" xmlns:xlink="http://www.w3.org/1999/xlink" x="0px" y="0px"
	 width="72.493px" height="48px" viewBox="0 0 72.493 48" enable-background="new 0 0 72.493 48" xml:space="preserve">
<path fill="#4199D5" d="M67.979,3c0.83,0,1.505,0.672,1.505,1.5v39c0,0.828-0.674,1.5-1.505,1.5h-18.07
	c-0.83,0-1.505-0.672-1.505-1.5v-39c0-0.828,0.674-1.5,1.505-1.5H67.979 M67.979,0h-18.07c-2.494,0-4.514,2.014-4.514,4.5v39
	c0,2.486,2.02,4.5,4.514,4.5h18.07c2.494,0,4.514-2.014,4.514-4.5v-39C72.493,2.014,70.473,0,67.979,0L67.979,0z"/>
<path fill="#4199D5" d="M55.455,40.5c0,1.652,1.344,2.993,3.002,2.993c1.659,0,3.002-1.34,3.002-2.993
	c0-1.651-1.343-2.992-3.002-2.992C56.799,37.508,55.455,38.849,55.455,40.5z"/>
<path fill-rule="evenodd" clip-rule="evenodd" fill="#4199D5" d="M55.448,4.5h6.019c0.831,0,1.505,0.671,1.505,1.5
	c0,0.828-0.674,1.5-1.505,1.5h-6.019c-0.831,0-1.505-0.672-1.505-1.5C53.943,5.171,54.617,4.5,55.448,4.5z"/>
<path fill="#4199D5" d="M45.143,9.732v25.509H3.01V9.732H45.143 M45.143,6.732H3.01c-1.655,0-3.01,1.35-3.01,3v25.509
	c0,1.649,1.355,3,3.01,3h42.133c1.655,0,3.009-1.35,3.009-3V9.732C48.153,8.082,46.798,6.732,45.143,6.732L45.143,6.732z"/>
<path fill-rule="evenodd" clip-rule="evenodd" fill="#4199D5" d="M25.581,36.75v6h7.524c0.831,0,1.505,0.672,1.505,1.5
	c0,0.828-0.674,1.5-1.505,1.5H15.048c-0.831,0-1.505-0.671-1.505-1.5c0-0.828,0.674-1.5,1.505-1.5h7.524v-6H25.581z"/>
</svg>
