<?xml version="1.0" encoding="UTF-8" standalone="no"?>
<svg width="30px" height="30px" viewBox="0 0 30 30" version="1.1" xmlns="http://www.w3.org/2000/svg" xmlns:xlink="http://www.w3.org/1999/xlink" xmlns:sketch="http://www.bohemiancoding.com/sketch/ns">
    <!-- Generator: Sketch 3.4.4 (17249) - http://www.bohemiancoding.com/sketch -->
    <title>Fill 1412 + Fill 1413</title>
    <desc>Created with Sketch.</desc>
    <defs></defs>
    <g id="Page-1" stroke="none" stroke-width="1" fill="none" fill-rule="evenodd" sketch:type="MSPage">
        <g id="BC_Case_study-Copy" sketch:type="MSArtboardGroup" transform="translate(-317.000000, -1676.000000)" fill="#399FCC">
            <g id="We-do…-+-Group" sketch:type="MSLayerGroup" transform="translate(317.000000, 1622.000000)">
                <g id="Group" transform="translate(0.000000, 54.000000)" sketch:type="MSShapeGroup">
                    <g id="Fill-1412-+-Fill-1413-+-Bespoke-theme-develo">
                        <g id="Fill-1412-+-Fill-1413">
                            <path d="M11.8477,19.9141 C11.7197,19.9141 11.5917,19.8651 11.4937,19.7671 L8.3427,16.6151 C8.1467,16.4201 8.1467,16.1031 8.3427,15.9081 C8.5377,15.7131 8.8537,15.7131 9.0497,15.9081 L11.8597,18.7191 L20.9627,10.2231 C21.1657,10.0341 21.4817,10.0461 21.6697,10.2471 C21.8577,10.4481 21.8477,10.7641 21.6457,10.9531 L12.1887,19.7791 C12.0927,19.8691 11.9697,19.9141 11.8477,19.9141" id="Fill-1412"></path>
                            <path d="M15,1.002 C7.28,1.002 1,7.282 1,15.002 C1,22.722 7.28,29.002 15,29.002 C22.72,29.002 29,22.722 29,15.002 C29,7.282 22.72,1.002 15,1.002 M15,30.002 C6.729,30.002 0,23.273 0,15.002 C0,6.731 6.729,0.002 15,0.002 C23.271,0.002 30,6.731 30,15.002 C30,23.273 23.271,30.002 15,30.002" id="Fill-1413"></path>
                        </g>
                    </g>
                </g>
            </g>
        </g>
    </g>
</svg>