<?xml version="1.0" encoding="utf-8"?>
<!-- Generator: Adobe Illustrator 17.0.0, SVG Export Plug-In . SVG Version: 6.00 Build 0)  -->
<!DOCTYPE svg PUBLIC "-//W3C//DTD SVG 1.1//EN" "http://www.w3.org/Graphics/SVG/1.1/DTD/svg11.dtd">
<svg version="1.1" id="Layer_1" xmlns="http://www.w3.org/2000/svg" xmlns:xlink="http://www.w3.org/1999/xlink" x="0px" y="0px"
	 width="235px" height="235px" viewBox="0 0 235 235" enable-background="new 0 0 235 235" xml:space="preserve">
<path fill-rule="evenodd" clip-rule="evenodd" fill="#3D9BDD" d="M0,0h235v235H0V0z"/>
<rect x="74.063" y="158.12" fill="none" width="91.478" height="27.569"/>
<text transform="matrix(1 0 0 1 74.0624 178.1291)" fill="#FFFFFF" font-family="'ProximaNova-Light'" font-size="30">Design</text>
<g>
	<path fill="#FFFFFF" d="M117.612,62.375c8.726,0,15.826,7.208,15.826,16.068v32.615c0,8.859-7.1,16.068-15.826,16.068
		c-8.726,0-16.051-7.208-16.051-16.068V78.443C101.561,69.583,108.886,62.375,117.612,62.375 M117.612,57.75
		c-11.255,0-20.607,9.266-20.607,20.692v32.615c0,11.427,9.351,20.693,20.607,20.693s20.382-9.265,20.382-20.693V78.443
		C137.994,67.016,128.868,57.75,117.612,57.75L117.612,57.75z"/>
	<path fill-rule="evenodd" clip-rule="evenodd" fill="#FFFFFF" d="M117.524,71.625c1.258,0,2.278,1.035,2.278,2.312V85.5
		c0,1.277-1.02,2.312-2.278,2.312c-1.258,0-2.278-1.035-2.278-2.312V73.937C115.246,72.66,116.266,71.625,117.524,71.625z"/>
</g>
</svg>
