<?xml version="1.0" encoding="UTF-8" standalone="no"?>
<svg width="1279px" height="707px" viewBox="0 0 1279 707" version="1.1" xmlns="http://www.w3.org/2000/svg" xmlns:xlink="http://www.w3.org/1999/xlink" xmlns:sketch="http://www.bohemiancoding.com/sketch/ns">
    <!-- Generator: Sketch 3.4.3 (16618) - http://www.bohemiancoding.com/sketch -->
    <title>Laptop</title>
    <desc>Created with Sketch.</desc>
    <defs></defs>
    <g id="Page-1" stroke="none" stroke-width="1" fill="none" fill-rule="evenodd" sketch:type="MSPage">
        <g id="BC_Case_study" sketch:type="MSArtboardGroup" transform="translate(-122.000000, -1808.000000)" stroke="#8492A5">
            <g id="Laptop-+-Newsfeed-Copy" sketch:type="MSLayerGroup" transform="translate(123.000000, 1809.000000)">
                <g id="Laptop" sketch:type="MSShapeGroup">
                    <path d="M1095.89194,0 L181.108059,0 C156.217361,0 135,20.4107952 135,45.6920905 L135,647 L1142,646.999982 L1142,45.6920905 C1141.99995,20.4089566 1120.85942,0 1095.89194,0 L1095.89194,0 Z" id="bezel" stroke-width="2" fill="#FEFEFE"></path>
                    <circle id="webcam" stroke-width="2" cx="640.5" cy="35.5" r="7.5"></circle>
                    <g id="bottom" transform="translate(0.000000, 647.000000)">
                        <path d="M1181.75719,57.1746875 L94.5830649,57.1746875 C38.0652208,57.1746875 0,37.7858125 0,29.5405625 L0,4.476625 C0,1.998625 2.46194805,0 5.52324675,0 L1270.81517,0 C1273.88016,0 1276.34579,1.998625 1276.34579,4.476625 L1276.34579,30.5269688 C1276.33288,37.044625 1246.8559,57.1746875 1181.75719,57.1746875 L1181.75719,57.1746875 Z" id="Shape" stroke-width="2" fill="#FDFDFD"></path>
                        <path d="M0.922077922,26.734375 L1272.91506,26.734375" id="Line"></path>
                    </g>
                    <path d="M777,649 L777,654.704457 C777,658.771677 768.997874,660 762.940808,660 L514.432228,660 C508.059381,660 500,658.773525 500,654.704457 L500,649" id="touchpad" fill="#FFFFFF"></path>
                </g>
            </g>
        </g>
    </g>
</svg>