<?xml version="1.0" encoding="UTF-8" standalone="no"?>
<svg width="31px" height="31px" viewBox="0 0 31 31" version="1.1" xmlns="http://www.w3.org/2000/svg" xmlns:xlink="http://www.w3.org/1999/xlink" xmlns:sketch="http://www.bohemiancoding.com/sketch/ns">
    <!-- Generator: Sketch 3.4.4 (17249) - http://www.bohemiancoding.com/sketch -->
    <title>Fill 1412 + Fill 1413 Copy + Fill 1421 + Fill 1422</title>
    <desc>Created with Sketch.</desc>
    <defs></defs>
    <g id="Page-1" stroke="none" stroke-width="1" fill="none" fill-rule="evenodd" sketch:type="MSPage">
        <g id="BC_Case_study-Copy" sketch:type="MSArtboardGroup" transform="translate(-735.000000, -1778.000000)" fill="#E47C91">
            <g id="...but-we-don’t-+-Group-Copy" sketch:type="MSLayerGroup" transform="translate(735.000000, 1730.000000)">
                <g id="Group-Copy" transform="translate(0.000000, 48.000000)" sketch:type="MSShapeGroup">
                    <g id="Fill-1412-+-Fill-1413-+-Bespoke-theme-develo-+-Fill-1412-+-Fill-1413-Copy-+-Fill-1421-+-Fill-1422">
                        <g id="Fill-1412-+-Fill-1413-Copy-+-Fill-1421-+-Fill-1422">
                            <path d="M15.5,1.03533333 C7.52266667,1.03533333 1.03333333,7.52466667 1.03333333,15.502 C1.03333333,23.4793333 7.52266667,29.9686667 15.5,29.9686667 C23.4773333,29.9686667 29.9666667,23.4793333 29.9666667,15.502 C29.9666667,7.52466667 23.4773333,1.03533333 15.5,1.03533333 M15.5,31.002 C6.9533,31.002 0,24.0487 0,15.502 C0,6.9553 6.9533,0.002 15.5,0.002 C24.0467,0.002 31,6.9553 31,15.502 C31,24.0487 24.0467,31.002 15.5,31.002" id="Fill-1413"></path>
                            <g id="Fill-1421-+-Fill-1422" transform="translate(9.000000, 9.000000)">
                                <path d="M12.1523,13.0234 C12.0243,13.0234 11.8963,12.9744 11.7983,12.8774 L0.4503,1.5284 C0.2553,1.3334 0.2553,1.0164 0.4503,0.8214 C0.6463,0.6264 0.9623,0.6264 1.1573,0.8214 L12.5063,12.1704 C12.7013,12.3654 12.7013,12.6814 12.5063,12.8774 C12.4083,12.9744 12.2803,13.0234 12.1523,13.0234" id="Fill-1421"></path>
                                <path d="M0.8042,13.0234 C0.6762,13.0234 0.5482,12.9744 0.4502,12.8774 C0.2552,12.6814 0.2552,12.3654 0.4502,12.1704 L11.7992,0.8214 C11.9942,0.6264 12.3102,0.6264 12.5062,0.8214 C12.7012,1.0164 12.7012,1.3334 12.5062,1.5284 L1.1582,12.8774 C1.0602,12.9744 0.9322,13.0234 0.8042,13.0234" id="Fill-1422"></path>
                            </g>
                        </g>
                    </g>
                </g>
            </g>
        </g>
    </g>
</svg>