<?xml version="1.0" encoding="UTF-8" standalone="no"?>
<svg width="215px" height="215px" viewBox="0 0 215 215" version="1.1" xmlns="http://www.w3.org/2000/svg" xmlns:xlink="http://www.w3.org/1999/xlink" xmlns:sketch="http://www.bohemiancoding.com/sketch/ns">
    <!-- Generator: Sketch 3.4.4 (17249) - http://www.bohemiancoding.com/sketch -->
    <title>Rectangle 121 Copy 4</title>
    <desc>Created with Sketch.</desc>
    <defs></defs>
    <g id="Page-1" stroke="none" stroke-width="1" fill="none" fill-rule="evenodd" sketch:type="MSPage">
        <g id="BC_Case_study-Copy" sketch:type="MSArtboardGroup" transform="translate(-490.000000, -2644.000000)">
            <rect id="Rectangle-120" fill="#F6F6F6" sketch:type="MSShapeGroup" x="0" y="2428" width="1440" height="647"></rect>
            <rect id="Rectangle-121-Copy" fill="#FFFFFF" sketch:type="MSShapeGroup" x="490" y="2644" width="215" height="215"></rect>
            <g id="logo---white" sketch:type="MSLayerGroup" transform="translate(531.000000, 2725.000000)">
                <g id="Path-1-+-Path-1" transform="translate(16.113924, 0.000000)" sketch:type="MSShapeGroup">
                    <path d="M-0.103812302,17.0360282 C-0.103812302,17.0360282 22.434731,10.1824428 52.672765,10.1824428 C82.9107991,10.1824428 105.451221,16.9465681 105.451221,16.9465681 C105.451221,16.9465681 83.0930578,5.86199079 52.7554391,5.86199079 C22.4178204,5.86199079 -0.103812302,17.0360282 -0.103812302,17.0360282 Z" id="Path-1" fill="#224B9F"></path>
                    <path d="M17.5422136,7.43743025 C17.5422136,7.43743025 32.5438498,2.87568936 52.6702608,2.87568936 C72.7966717,2.87568936 87.7995586,7.37788568 87.7995586,7.37788568 C87.7995586,7.37788568 72.917983,0 52.7252885,0 C32.5325941,0 17.5422136,7.43743025 17.5422136,7.43743025 Z" id="Path-1" fill="#6CC3DB"></path>
                </g>
                <path d="M22.5955696,53.7589286 L17.364557,53.7589286 L15.8493671,49.2026786 L6.7221519,49.2026786 L5.17088608,53.7589286 L-0.0601265823,53.7589286 L9.2835443,28.0125 L13.2158228,28.0125 L22.5955696,53.7589286 Z M14.514557,44.971875 L11.3759494,35.60625 L8.12911392,44.971875 L14.514557,44.971875 Z M33.3822785,53.7589286 L30.7126582,53.7589286 C28.9088517,53.7589286 27.513929,53.1924164 26.5278481,52.059375 C25.662021,51.0709772 25.2291139,49.8415252 25.2291139,48.3709821 L25.2291139,28.0125 L29.9189873,28.0125 L29.9189873,48.0816964 C29.9189873,49.2147378 30.4721464,49.78125 31.578481,49.78125 L33.3822785,49.78125 L33.3822785,53.7589286 Z M51.2759494,47.8285714 C51.2759494,49.8294743 50.5063368,51.372316 48.9670886,52.4571429 C47.5240434,53.4696479 45.6360876,53.9758929 43.3031646,53.9758929 C41.5474596,53.9758929 40.1164612,53.819198 39.0101266,53.5058036 C37.6151829,53.0959801 36.3765877,52.3486661 35.2943038,51.2638393 L38.3607595,48.1901786 C39.5392464,49.3714345 41.2107487,49.9620536 43.3753165,49.9620536 C45.5879857,49.9620536 46.6943038,49.3111672 46.6943038,48.009375 C46.6943038,46.9727627 46.032918,46.394197 44.7101266,46.2736607 L41.7518987,45.984375 C38.0961843,45.622766 36.2683544,43.8629622 36.2683544,40.7049107 C36.2683544,38.8245442 37.0018914,37.3299163 38.4689873,36.2209821 C39.8158295,35.2084771 41.499357,34.7022321 43.5196203,34.7022321 C46.7424212,34.7022321 49.1354352,35.4374926 50.6987342,36.9080357 L47.8126582,39.8370536 C46.8746789,38.9932994 45.4196301,38.5714286 43.4474684,38.5714286 C41.6677126,38.5714286 40.7778481,39.1741011 40.7778481,40.3794643 C40.7778481,41.3437548 41.4272087,41.8861601 42.7259494,42.0066964 L45.6841772,42.2959821 C49.412044,42.6575911 51.2759494,44.5017691 51.2759494,47.8285714 L51.2759494,47.8285714 Z M68.8810127,51.4084821 C67.2455614,53.1200978 65.1772277,53.9758929 62.6759494,53.9758929 C60.3911278,53.9758929 58.5272224,53.3250065 57.0841772,52.0232143 C55.2082185,50.3357058 54.2702532,47.7683208 54.2702532,44.3209821 C54.2702532,40.8736435 55.2082185,38.3183119 57.0841772,36.6549107 C58.5272224,35.3531185 60.3911278,34.7022321 62.6759494,34.7022321 C65.2012784,34.7022321 67.2696122,35.5459737 68.8810127,37.2334821 L65.7063291,40.415625 C64.7924005,39.4272272 63.782284,38.9330357 62.6759494,38.9330357 C61.5696147,38.9330357 60.6737376,39.3549065 59.9882911,40.1986607 C59.3028447,41.0424149 58.9601266,42.4165083 58.9601266,44.3209821 C58.9601266,46.2495632 59.3028447,47.6357101 59.9882911,48.4794643 C60.6737376,49.3232185 61.5696147,49.7450893 62.6759494,49.7450893 C63.782284,49.7450893 64.7924005,49.2508978 65.7063291,48.2625 L68.8810127,51.4084821 Z M77.2506329,31.7008929 L72.4525316,31.7008929 L72.4525316,27.8678571 L77.2506329,27.8678571 L77.2506329,31.7008929 Z M77.214557,53.7589286 L72.5246835,53.7589286 L72.5246835,34.9191964 L77.214557,34.9191964 L77.214557,53.7589286 Z M97.8860759,45.8035714 L86.1253165,45.8035714 C86.1253165,47.0571491 86.4920849,48.069639 87.2256329,48.8410714 C87.9591809,49.6125039 88.9632848,49.9982143 90.2379747,49.9982143 C91.8974767,49.9982143 93.3164498,49.4075952 94.4949367,48.2263393 L97.3449367,51.0107143 C96.3107543,52.0473266 95.3006378,52.7825871 94.314557,53.2165179 C93.1841716,53.7227704 91.8132992,53.9758929 90.2018987,53.9758929 C84.4056672,53.9758929 81.5075949,50.7576215 81.5075949,44.3209821 C81.5075949,41.3075742 82.2651823,38.9330444 83.7803797,37.1973214 C85.2474757,35.5339203 87.2196079,34.7022321 89.6968354,34.7022321 C92.2462153,34.7022321 94.2664482,35.5580272 95.7575949,37.2696429 C97.1765894,38.9089368 97.8860759,41.054451 97.8860759,43.70625 L97.8860759,45.8035714 Z M93.2683544,42.5852679 C93.2443037,41.8138354 93.1000013,41.1388422 92.835443,40.5602679 C92.258225,39.2584756 91.2120329,38.6075893 89.6968354,38.6075893 C88.181638,38.6075893 87.1354459,39.2584756 86.5582278,40.5602679 C86.2936696,41.1388422 86.1493672,41.8138354 86.1253165,42.5852679 L93.2683544,42.5852679 Z M117.836076,53.7589286 L113.146203,53.7589286 L113.146203,42.3683036 C113.146203,41.1870477 112.809497,40.2950923 112.136076,39.6924107 C111.582909,39.1861582 110.885447,38.9330357 110.043671,38.9330357 C109.177844,38.9330357 108.468357,39.1861582 107.91519,39.6924107 C107.241769,40.2950923 106.905063,41.1870477 106.905063,42.3683036 L106.905063,53.7589286 L102.21519,53.7589286 L102.21519,34.9191964 L106.796835,34.9191964 L106.796835,36.6549107 C108.023424,35.3531185 109.586699,34.7022321 111.486709,34.7022321 C113.338617,34.7022321 114.817716,35.2566909 115.924051,36.365625 C117.198741,37.64331 117.836076,39.4272207 117.836076,41.7174107 L117.836076,53.7589286 Z M131.328481,53.7589286 L128.767089,53.7589286 C126.987333,53.7589286 125.604435,53.1924164 124.618354,52.059375 C123.752527,51.0709772 123.31962,49.8415252 123.31962,48.3709821 L123.31962,39.0415179 L121.335443,39.0415179 L121.335443,35.4616071 L123.31962,35.4616071 L123.31962,29.8928571 L128.009494,29.8928571 L128.009494,35.4616071 L131.328481,35.4616071 L131.328481,39.0415179 L128.009494,39.0415179 L128.009494,48.0816964 C128.009494,49.2147378 128.550628,49.78125 129.632911,49.78125 L131.328481,49.78125 L131.328481,53.7589286 Z" id="Alscient" fill="#224B9F" sketch:type="MSShapeGroup"></path>
            </g>
        </g>
    </g>
</svg>