<?xml version="1.0" encoding="UTF-8" standalone="no"?>
<svg width="215px" height="215px" viewBox="0 0 215 215" version="1.1" xmlns="http://www.w3.org/2000/svg" xmlns:xlink="http://www.w3.org/1999/xlink" xmlns:sketch="http://www.bohemiancoding.com/sketch/ns">
    <!-- Generator: Sketch 3.4.4 (17249) - http://www.bohemiancoding.com/sketch -->
    <title>Rectangle 121 Copy 5</title>
    <desc>Created with Sketch.</desc>
    <defs></defs>
    <g id="Page-1" stroke="none" stroke-width="1" fill="none" fill-rule="evenodd" sketch:type="MSPage">
        <g id="BC_Case_study-Copy" sketch:type="MSArtboardGroup" transform="translate(-735.000000, -2644.000000)">
            <rect id="Rectangle-120" fill="#F6F6F6" sketch:type="MSShapeGroup" x="0" y="2428" width="1440" height="647"></rect>
            <rect id="Rectangle-121-Copy-2" fill="#FFFFFF" sketch:type="MSShapeGroup" x="735" y="2644" width="215" height="215"></rect>
            <g id="dev_logo" sketch:type="MSLayerGroup" transform="translate(760.000000, 2734.000000)">
                <g id="Layer_1" sketch:type="MSShapeGroup">
                    <g id="Group" transform="translate(0.627376, 0.000000)" fill="#2272B9">
                        <path d="M10.1741635,15.55875 C9.89937262,15.640625 9.58442966,15.719375 9.22745247,15.794375 C8.87047529,15.869375 8.49718631,15.934375 8.10570342,15.989375 C7.71484791,16.04375 7.31709125,16.088125 6.91243346,16.1225 C6.50777567,16.156875 6.12005703,16.17375 5.74990494,16.17375 C4.85840304,16.17375 4.06288973,16.04375 3.36336502,15.784375 C2.6638403,15.525 2.07347909,15.1525 1.59353612,14.666875 C1.11296578,14.181875 0.74595057,13.594375 0.492490494,12.904375 C0.238403042,12.214375 0.11230038,11.43875 0.11230038,10.5775 C0.11230038,9.703125 0.222091255,8.91375 0.441045627,8.21 C0.66,7.50625 0.976197719,6.908125 1.38775665,6.41625 C1.79931559,5.924375 2.30309886,5.54875 2.90036122,5.28875 C3.4969962,5.029375 4.17958175,4.89875 4.94811787,4.89875 C5.37285171,4.89875 5.7536692,4.94 6.08994297,5.021875 C6.42558935,5.10375 6.76562738,5.22 7.10880228,5.37 L7.10880228,0.491875 L10.1741635,0 L10.1741635,15.55875 L10.1741635,15.55875 Z M3.23977186,10.43375 C3.23977186,11.37625 3.4518251,12.135 3.87781369,12.70875 C4.30254753,13.2825 4.93431559,13.57 5.77123574,13.57 C6.04539924,13.57 6.29885932,13.559375 6.53224335,13.539375 C6.76562738,13.51875 6.95697719,13.495 7.1081749,13.4675 L7.1081749,7.9125 C6.91557034,7.789375 6.66524715,7.686875 6.35720532,7.605 C6.04853612,7.523125 5.73610266,7.481875 5.4211597,7.481875 C3.96690114,7.481875 3.23977186,8.465625 3.23977186,10.43375 L3.23977186,10.43375 Z" id="Shape"></path>
                        <path d="M12.54,10.598125 C12.54,9.641875 12.6868061,8.804375 12.9823004,8.086875 C13.2771673,7.37 13.6642586,6.771875 14.1448289,6.293125 C14.6247719,5.815 15.1768631,5.4525 15.8011027,5.206875 C16.4253422,4.960625 17.0665209,4.838125 17.7252662,4.838125 C19.2610837,4.838125 20.475057,5.30625 21.3671863,6.2425 C22.2586882,7.17875 22.7047529,8.555625 22.7047529,10.373125 C22.7047529,10.550625 22.6978517,10.745625 22.6840494,10.9575 C22.6702471,11.169375 22.6564449,11.3575 22.6426426,11.52125 L15.6881749,11.52125 C15.7565589,12.15 16.0514259,12.64875 16.5727757,13.0175 C17.0941255,13.38625 17.7936502,13.57125 18.6713498,13.57125 C19.2334791,13.57125 19.7855703,13.52 20.328251,13.4175 C20.8696768,13.315 21.3119772,13.18875 21.6551521,13.038125 L22.066711,15.51875 C21.901711,15.600625 21.6821293,15.6825 21.4079658,15.765 C21.1331749,15.846875 20.82827,15.91875 20.4926236,15.98 C20.1563498,16.041875 19.7962357,16.093125 19.4122814,16.13375 C19.0276996,16.174375 18.6437452,16.195 18.2597909,16.195 C17.2854753,16.195 16.4385171,16.051875 15.718289,15.765 C14.9986882,15.478125 14.4014259,15.085625 13.928384,14.58625 C13.4553422,14.086875 13.1052662,13.49625 12.8787833,12.813125 C12.6529278,12.12875 12.54,11.390625 12.54,10.598125 L12.54,10.598125 Z M19.741654,9.429375 C19.7278517,9.17 19.683308,8.916875 19.6080228,8.67125 C19.5321103,8.425 19.4154183,8.206875 19.2579468,8.015 C19.0998479,7.82375 18.9009696,7.66625 18.6613118,7.54375 C18.4210266,7.420625 18.1230228,7.359375 17.7660456,7.359375 C17.4228707,7.359375 17.1280038,7.4175 16.8814449,7.53375 C16.6342586,7.65 16.4284791,7.80375 16.2641065,7.995 C16.0991065,8.186875 15.9723764,8.40875 15.883289,8.66125 C15.7935741,8.914375 15.7289544,9.170625 15.6875475,9.43 L19.741654,9.43 L19.741654,9.429375 Z" id="Shape"></path>
                        <path d="M28.0292966,15.906875 C27.326635,14.540625 26.6145627,12.94125 25.8911977,11.11 C25.1684601,9.27875 24.483365,7.28375 23.8365399,5.124375 L27.0876046,5.124375 C27.225,5.6575 27.3874905,6.235 27.5731939,6.85625 C27.7588973,7.478125 27.9521293,8.106875 28.1522624,8.7425 C28.3517681,9.378125 28.5512738,9.99625 28.7514068,10.5975 C28.9509125,11.19875 29.1479087,11.745 29.3405133,12.2375 C29.5193156,11.745625 29.7119202,11.199375 29.9189544,10.5975 C30.1247338,9.99625 30.3280038,9.3775 30.5281369,8.7425 C30.72827,8.1075 30.9202471,7.47875 31.1065779,6.85625 C31.2922814,6.234375 31.4547719,5.6575 31.5915399,5.124375 L34.7629278,5.124375 C34.1161027,7.28375 33.431635,9.27875 32.7095247,11.11 C31.9874144,12.94125 31.2753422,14.540625 30.5739354,15.906875 L28.0292966,15.906875 L28.0292966,15.906875 Z" id="Shape"></path>
                        <path d="M35.5854183,10.598125 C35.5854183,9.641875 35.7328517,8.804375 36.0277186,8.086875 C36.3232129,7.37 36.7103042,6.771875 37.1908745,6.293125 C37.6708175,5.815 38.2229087,5.4525 38.8477757,5.206875 C39.4713878,4.960625 40.1131939,4.838125 40.7713118,4.838125 C42.3071293,4.838125 43.52173,5.30625 44.4132319,6.2425 C45.3053612,7.17875 45.7507985,8.555625 45.7507985,10.373125 C45.7507985,10.550625 45.7438973,10.745625 45.7307224,10.9575 C45.7169202,11.169375 45.7031179,11.3575 45.689943,11.52125 L38.7342205,11.52125 C38.8026046,12.15 39.0974715,12.64875 39.6188213,13.0175 C40.1401711,13.38625 40.8396958,13.57125 41.7180228,13.57125 C42.2801521,13.57125 42.8322433,13.52 43.3742966,13.4175 C43.9163498,13.315 44.3586502,13.18875 44.7018251,13.038125 L45.1127567,15.51875 C44.948384,15.600625 44.7288023,15.6825 44.4546388,15.765 C44.1798479,15.846875 43.8743156,15.91875 43.5386692,15.98 C43.2023954,16.041875 42.8422814,16.093125 42.458327,16.13375 C42.0743726,16.174375 41.6897909,16.195 41.3058365,16.195 C40.3315209,16.195 39.4851901,16.051875 38.7643346,15.765 C38.0447338,15.478125 37.4474715,15.085625 36.9738023,14.58625 C36.5007605,14.0875 36.1506844,13.49625 35.9242015,12.813125 C35.6989734,12.12875 35.5854183,11.390625 35.5854183,10.598125 L35.5854183,10.598125 Z M42.7876996,9.429375 C42.7745247,9.17 42.7293536,8.916875 42.6540684,8.67125 C42.5787833,8.425625 42.4614639,8.206875 42.3039924,8.015 C42.1458935,7.82375 41.9470152,7.66625 41.7073574,7.54375 C41.4670722,7.420625 41.1690684,7.359375 40.8120913,7.359375 C40.4689163,7.359375 40.1740494,7.4175 39.9274905,7.53375 C39.6803042,7.65 39.4745247,7.80375 39.3101521,7.995 C39.1457795,8.186875 39.0184221,8.40875 38.929962,8.66125 C38.8402471,8.914375 38.7756274,9.170625 38.7342205,9.43 L42.7876996,9.43 L42.7876996,9.429375 Z" id="Shape"></path>
                        <path d="M52.4380038,16.111875 C51.5458745,16.098125 50.8225095,16.0025 50.2672814,15.825 C49.7114259,15.6475 49.2722624,15.398125 48.9497909,15.076875 C48.6273194,14.755625 48.4077376,14.36625 48.2910456,13.908125 C48.1743536,13.450625 48.116635,12.934375 48.116635,12.360625 L48.116635,0.491875 L51.183251,0 L51.183251,11.745625 C51.183251,12.019375 51.2039544,12.265625 51.2453612,12.48375 C51.2867681,12.701875 51.3651901,12.886875 51.4818821,13.036875 C51.5985741,13.1875 51.766711,13.310625 51.9862928,13.405625 C52.2058745,13.50125 52.5007414,13.563125 52.8708935,13.59 L52.4380038,16.111875 L52.4380038,16.111875 Z" id="Shape"></path>
                        <path d="M64.743365,10.495 C64.743365,11.3425 64.6197719,12.118125 64.3725856,12.821875 C64.1253992,13.525625 63.7690494,14.126875 63.3029087,14.625625 C62.8361407,15.124375 62.2771483,15.510625 61.6259316,15.78375 C60.9740875,16.056875 60.2438213,16.19375 59.4345057,16.19375 C58.638365,16.19375 57.915,16.056875 57.2637833,15.78375 C56.6119392,15.510625 56.0523194,15.124375 55.5861787,14.625625 C55.120038,14.126875 54.7567871,13.525625 54.4957985,12.821875 C54.2354373,12.118125 54.104943,11.3425 54.104943,10.495 C54.104943,9.648125 54.2392015,8.875625 54.5064639,8.17875 C54.7743536,7.481875 55.1445057,6.8875 55.6175475,6.395 C56.0905894,5.903125 56.6527186,5.520625 57.3045627,5.246875 C57.9557795,4.97375 58.6659696,4.836875 59.4345057,4.836875 C60.2162167,4.836875 60.933308,4.97375 61.5851521,5.246875 C62.2363688,5.520625 62.7953612,5.903125 63.2621293,6.395 C63.72827,6.886875 64.0915209,7.48125 64.3525095,8.17875 C64.6128707,8.87625 64.743365,9.648125 64.743365,10.495 L64.743365,10.495 Z M61.6152662,10.495 C61.6152662,9.551875 61.4264259,8.81125 61.0493726,8.270625 C60.671692,7.73125 60.1340304,7.46125 59.4345057,7.46125 C58.734981,7.46125 58.1929278,7.73125 57.8089734,8.270625 C57.425019,8.810625 57.2324144,9.551875 57.2324144,10.495 C57.2324144,11.438125 57.425019,12.18625 57.8089734,12.739375 C58.1923004,13.293125 58.734981,13.57 59.4345057,13.57 C60.1340304,13.57 60.6723194,13.293125 61.0493726,12.739375 C61.4270532,12.186875 61.6152662,11.438125 61.6152662,10.495 L61.6152662,10.495 Z" id="Shape"></path>
                        <path d="M77.1710646,10.515625 C77.1710646,11.349375 77.0681749,12.1075 76.8623954,12.79125 C76.656616,13.475 76.3548479,14.0625 75.9577186,14.554375 C75.5593346,15.04625 75.0655894,15.42875 74.4758555,15.701875 C73.886749,15.975625 73.2073004,16.111875 72.4393916,16.111875 C72.013403,16.111875 71.6162738,16.070625 71.2461217,15.98875 C70.8753422,15.906875 70.5189924,15.790625 70.1758175,15.64 L70.1758175,19.69875 L67.1098289,19.69875 L67.1098289,5.49375 C67.3846198,5.411875 67.6989354,5.33375 68.0565399,5.258125 C68.4128897,5.183125 68.7868061,5.118125 69.1776616,5.063125 C69.5685171,5.008125 69.9669011,4.964375 70.3709316,4.93 C70.7755894,4.89625 71.163308,4.87875 71.5340875,4.87875 C72.4255894,4.87875 73.2211027,5.011875 73.9212548,5.27875 C74.6214068,5.545625 75.2105133,5.92125 75.6904563,6.40625 C76.1703992,6.89125 76.5374144,7.4825 76.7915019,8.179375 C77.0443346,8.87625 77.1710646,9.655 77.1710646,10.515625 L77.1710646,10.515625 Z M74.0435932,10.598125 C74.0435932,9.655 73.8309125,8.9 73.4055513,8.333125 C72.9801901,7.76625 72.3490494,7.4825 71.5121293,7.4825 C71.2373384,7.4825 70.9838783,7.493125 70.7511217,7.513125 C70.5177376,7.53375 70.3251331,7.5575 70.1745627,7.585 L70.1745627,13.099375 C70.3665399,13.2225 70.6168631,13.325 70.9255323,13.406875 C71.2342015,13.48875 71.5460076,13.53 71.8615779,13.53 C73.3164639,13.52875 74.0435932,12.551875 74.0435932,10.598125 L74.0435932,10.598125 Z" id="Shape"></path>
                        <path d="M79.0230798,10.598125 C79.0230798,9.641875 79.1705133,8.804375 79.4653802,8.086875 C79.7608745,7.37 80.1479658,6.771875 80.6285361,6.293125 C81.1084791,5.815 81.6605703,5.4525 82.2854373,5.206875 C82.9090494,4.960625 83.5508555,4.838125 84.2089734,4.838125 C85.7447909,4.838125 86.9593916,5.30625 87.8508935,6.2425 C88.7430228,7.17875 89.1884601,8.555625 89.1884601,10.373125 C89.1884601,10.550625 89.1815589,10.745625 89.168384,10.9575 C89.1545817,11.169375 89.1407795,11.3575 89.1276046,11.52125 L82.1725095,11.52125 C82.2408935,12.15 82.5357605,12.64875 83.0571103,13.0175 C83.5784601,13.38625 84.2779848,13.57125 85.1563118,13.57125 C85.7184411,13.57125 86.2705323,13.52 86.8125856,13.4175 C87.3546388,13.315 87.7969392,13.18875 88.1401141,13.038125 L88.5510456,15.51875 C88.386673,15.600625 88.1670913,15.6825 87.8929278,15.765 C87.6181369,15.846875 87.3126046,15.91875 86.9769582,15.98 C86.6406844,16.041875 86.2805703,16.093125 85.896616,16.13375 C85.5126616,16.174375 85.1280798,16.195 84.7441255,16.195 C83.7698099,16.195 82.9234791,16.051875 82.2026236,15.765 C81.4830228,15.478125 80.8857605,15.085625 80.4120913,14.58625 C79.9390494,14.0875 79.5889734,13.49625 79.3624905,12.813125 C79.1360076,12.12875 79.0230798,11.390625 79.0230798,10.598125 L79.0230798,10.598125 Z M86.2247338,9.429375 C86.2115589,9.17 86.1663878,8.916875 86.0911027,8.67125 C86.0158175,8.425625 85.8984981,8.206875 85.7410266,8.015 C85.5829278,7.82375 85.3840494,7.66625 85.1443916,7.54375 C84.9041065,7.420625 84.6061027,7.359375 84.2491255,7.359375 C83.9059506,7.359375 83.6110837,7.4175 83.3645247,7.53375 C83.1173384,7.65 82.9115589,7.80375 82.7471863,7.995 C82.5828137,8.186875 82.4554563,8.40875 82.3669962,8.66125 C82.2772814,8.914375 82.2126616,9.170625 82.1712548,9.43 L86.2247338,9.43 L86.2247338,9.429375 Z" id="Shape"></path>
                        <path d="M98.0771293,7.830625 C97.8023384,7.7625 97.4811217,7.690625 97.1103422,7.615625 C96.7395627,7.540625 96.3418061,7.5025 95.9170722,7.5025 C95.7244677,7.5025 95.4954753,7.52 95.2275856,7.55375 C94.9596958,7.588125 94.7576806,7.625625 94.6202852,7.66625 L94.6202852,15.906875 L91.5542966,15.906875 L91.5542966,5.69875 C92.1026236,5.5075 92.7507034,5.326875 93.4991635,5.155625 C94.2463688,4.985 95.0801521,4.899375 95.9986312,4.899375 C96.1636312,4.899375 96.3618821,4.91 96.5952662,4.93 C96.8286502,4.95 97.0614068,4.978125 97.2947909,5.011875 C97.5281749,5.04625 97.7609316,5.0875 97.9943156,5.135 C98.2276996,5.183125 98.4259506,5.240625 98.5909506,5.309375 L98.0771293,7.830625 L98.0771293,7.830625 Z" id="Shape"></path>
                        <path d="M102.70654,14.8 C102.70654,15.16875 102.583574,15.49 102.336388,15.76375 C102.089202,16.0375 101.752928,16.17375 101.328194,16.17375 C100.90346,16.17375 100.566559,16.036875 100.32,15.76375 C100.073441,15.490625 99.9498479,15.169375 99.9498479,14.8 C99.9498479,14.430625 100.072814,14.11 100.32,13.83625 C100.567186,13.563125 100.90346,13.42625 101.328194,13.42625 C101.752928,13.42625 102.089829,13.563125 102.336388,13.83625 C102.582947,14.11 102.70654,14.43125 102.70654,14.8 L102.70654,14.8 Z" id="Shape"></path>
                        <path d="M105.504639,5.555 C105.943175,5.445625 106.526635,5.329375 107.253764,5.20625 C107.980266,5.083125 108.817186,5.021875 109.763897,5.021875 C110.613992,5.021875 111.320418,5.14125 111.883175,5.380625 C112.445304,5.62 112.894506,5.954375 113.230779,6.385 C113.566426,6.815625 113.803574,7.331875 113.94097,7.933125 C114.077738,8.534375 114.146749,9.196875 114.146749,9.92125 L114.146749,15.906875 L112.232624,15.906875 L112.232624,10.33125 C112.232624,9.675 112.18808,9.115 112.098992,8.650625 C112.009278,8.18625 111.862471,7.81 111.656692,7.523125 C111.450913,7.23625 111.176122,7.028125 110.833574,6.898125 C110.490399,6.768125 110.065038,6.703125 109.558118,6.703125 C109.352338,6.703125 109.139658,6.710625 108.920076,6.72375 C108.700494,6.7375 108.490951,6.754375 108.2927,6.775 C108.093821,6.795625 107.915019,6.819375 107.75692,6.846875 C107.599449,6.874375 107.485894,6.895 107.41751,6.908125 L107.41751,15.906875 L105.504011,15.906875 L105.504011,5.555 L105.504639,5.555 Z" id="Shape"></path>
                        <path d="M117.316255,15.906875 L117.316255,0.3275 L119.229125,0 L119.229125,5.4525 C119.585475,5.31625 119.96692,5.21 120.370951,5.135 C120.775608,5.06 121.176502,5.0225 121.574886,5.0225 C122.424981,5.0225 123.131407,5.141875 123.694163,5.38125 C124.256293,5.620625 124.705494,5.955 125.041768,6.385625 C125.377414,6.81625 125.614563,7.3325 125.751958,7.93375 C125.888726,8.535 125.957738,9.1975 125.957738,9.921875 L125.957738,15.9075 L124.043612,15.9075 L124.043612,10.33125 C124.043612,9.675 123.999068,9.115 123.909981,8.650625 C123.820266,8.18625 123.67346,7.81 123.467681,7.523125 C123.261901,7.23625 122.98711,7.028125 122.644563,6.898125 C122.301388,6.768125 121.876027,6.703125 121.369106,6.703125 C121.163327,6.703125 120.950646,6.716875 120.731065,6.744375 C120.511483,6.771875 120.301939,6.8025 120.103688,6.83625 C119.90481,6.870625 119.726008,6.908125 119.567909,6.949375 C119.410437,6.99 119.296882,7.024375 119.228498,7.051875 L119.228498,15.9075 L117.316255,15.9075 L117.316255,15.906875 Z" id="Shape"></path>
                        <path d="M131.55519,14.53375 C132.336901,14.53375 132.91597,14.43125 133.29365,14.22625 C133.670703,14.02125 133.858916,13.693125 133.858916,13.2425 C133.858916,12.778125 133.67384,12.409375 133.303061,12.135625 C132.932909,11.861875 132.322471,11.555 131.471749,11.213125 C131.060817,11.049375 130.666198,10.881875 130.288517,10.710625 C129.910837,10.54 129.585228,10.33875 129.311065,10.10625 C129.036274,9.87375 128.817319,9.59375 128.652319,9.265625 C128.487319,8.9375 128.405133,8.535 128.405133,8.05625 C128.405133,7.113125 128.755209,6.365 129.454734,5.811875 C130.154259,5.258125 131.107871,4.98125 132.314943,4.98125 C132.616711,4.98125 132.918479,4.99875 133.220247,5.0325 C133.521388,5.066875 133.80308,5.108125 134.064068,5.155625 C134.32443,5.20375 134.554049,5.255 134.753555,5.309375 C134.951806,5.36375 135.106141,5.411875 135.216559,5.4525 L134.866483,7.0925 C134.660703,6.983125 134.338232,6.870625 133.899068,6.75375 C133.460532,6.6375 132.932281,6.579375 132.314943,6.579375 C131.779791,6.579375 131.31365,6.685625 130.915894,6.8975 C130.518137,7.109375 130.319886,7.440625 130.319886,7.89125 C130.319886,8.12375 130.363802,8.32875 130.453517,8.50625 C130.542605,8.684375 130.679373,8.845 130.865076,8.988125 C131.050152,9.13125 131.279144,9.265 131.554563,9.388125 C131.828726,9.51125 132.158099,9.64125 132.542053,9.7775 C133.049601,9.969375 133.501939,10.156875 133.899696,10.34125 C134.297452,10.525625 134.63749,10.74125 134.918555,10.986875 C135.198992,11.233125 135.415437,11.53 135.566635,11.87875 C135.717205,12.2275 135.79249,12.654375 135.79249,13.16 C135.79249,14.14375 135.425475,14.889375 134.691445,15.394375 C133.957414,15.9 132.911578,16.1525 131.553935,16.1525 C130.607224,16.1525 129.86692,16.07375 129.331141,15.916875 C128.795989,15.76 128.432738,15.64 128.24076,15.558125 L128.590837,13.918125 C128.810418,14 129.159867,14.123125 129.640437,14.2875 C130.121635,14.451875 130.759049,14.53375 131.55519,14.53375 L131.55519,14.53375 Z" id="Shape"></path>
                        <path d="M140.50597,14.8 C140.50597,15.16875 140.383004,15.49 140.135817,15.76375 C139.888631,16.0375 139.552357,16.17375 139.127624,16.17375 C138.70289,16.17375 138.365989,16.036875 138.11943,15.76375 C137.872871,15.490625 137.749278,15.169375 137.749278,14.8 C137.749278,14.430625 137.872243,14.11 138.11943,13.83625 C138.366616,13.563125 138.70289,13.42625 139.127624,13.42625 C139.552357,13.42625 139.889259,13.563125 140.135817,13.83625 C140.382376,14.11 140.50597,14.43125 140.50597,14.8 L140.50597,14.8 Z" id="Shape"></path>
                        <path d="M151.822586,15.599375 C151.383422,15.70875 150.804354,15.825 150.084125,15.948125 C149.364525,16.07125 148.530114,16.1325 147.584658,16.1325 C146.76154,16.1325 146.068289,16.0125 145.50616,15.77375 C144.94403,15.535 144.491065,15.196875 144.148517,14.75875 C143.805342,14.321875 143.558783,13.805625 143.407586,13.21125 C143.256388,12.616875 143.181103,11.9575 143.181103,11.233125 L143.181103,5.2475 L145.095228,5.2475 L145.095228,10.823125 C145.095228,12.121875 145.301008,13.050625 145.711939,13.610625 C146.123498,14.17125 146.816122,14.45125 147.78981,14.45125 C147.995589,14.45125 148.20827,14.444375 148.428479,14.430625 C148.647433,14.4175 148.853213,14.4 149.04519,14.379375 C149.237167,14.35875 149.412205,14.338125 149.570304,14.3175 C149.727776,14.296875 149.840703,14.273125 149.909715,14.245625 L149.909715,5.2475 L151.823213,5.2475 L151.823213,15.599375 L151.822586,15.599375 Z" id="Shape"></path>
                        <path d="M158.98346,10.044375 C159.395019,10.35875 159.830418,10.748125 160.289658,11.213125 C160.748897,11.678125 161.201863,12.18 161.647928,12.72 C162.093365,13.26 162.515589,13.80625 162.913973,14.36 C163.31173,14.913125 163.647376,15.429375 163.92154,15.9075 L161.678669,15.9075 C161.390703,15.429375 161.058194,14.940625 160.681141,14.441875 C160.30346,13.943125 159.909468,13.465 159.497281,13.006875 C159.08635,12.549375 158.66789,12.129375 158.242529,11.74625 C157.81654,11.36375 157.41251,11.043125 157.027928,10.7825 L157.027928,15.9075 L155.11443,15.9075 L155.11443,0.3275 L157.027928,0 L157.027928,9.71625 C157.3573,9.388125 157.720551,9.02625 158.118308,8.63 C158.516065,8.23375 158.907548,7.830625 159.291502,7.42 C159.674829,7.01 160.038707,6.6175 160.381882,6.24125 C160.72443,5.865625 161.019924,5.534375 161.266483,5.246875 L163.509354,5.246875 C163.193156,5.58875 162.850608,5.964375 162.479829,6.374375 C162.109677,6.784375 161.725722,7.1975 161.327966,7.614375 C160.929582,8.03125 160.528688,8.448125 160.12403,8.864375 C159.72,9.2825 159.33981,9.675 158.98346,10.044375 L158.98346,10.044375 Z" id="Shape"></path>
                    </g>
                    <g id="Group" transform="translate(0.000000, 23.125000)" fill="#848585">
                        <path d="M6.21102662,1.16875 L6.21102662,2.14375 L3.67077947,2.14375 L3.67077947,9.21375 L2.54024715,9.21375 L2.54024715,2.14375 L0,2.14375 L0,1.16875 L6.21102662,1.16875 L6.21102662,1.16875 Z" id="Shape"></path>
                        <path d="M7.32963878,9.21375 L7.32963878,0.390625 L8.41374525,0.205 L8.41374525,3.293125 C8.61576046,3.215625 8.83157795,3.155625 9.06057034,3.113125 C9.28956274,3.070625 9.516673,3.049375 9.74190114,3.049375 C10.2237262,3.049375 10.623365,3.116875 10.9420722,3.2525 C11.2607795,3.388125 11.5148669,3.578125 11.7055894,3.82125 C11.8956844,4.065 12.029943,4.3575 12.1077376,4.698125 C12.1855323,5.03875 12.2244297,5.414375 12.2244297,5.824375 L12.2244297,9.214375 L11.1403232,9.214375 L11.1403232,6.05625 C11.1403232,5.684375 11.1152281,5.3675 11.0644106,5.104375 C11.0135932,4.84125 10.9301521,4.628125 10.8140875,4.46625 C10.6973954,4.30375 10.5418061,4.185625 10.3479468,4.111875 C10.1534601,4.03875 9.9131749,4.001875 9.6258365,4.001875 C9.50914449,4.001875 9.38868821,4.01 9.26446768,4.025 C9.14024715,4.040625 9.021673,4.058125 8.90937262,4.076875 C8.79644487,4.09625 8.69543726,4.1175 8.60634981,4.14125 C8.51663498,4.164375 8.45264259,4.18375 8.41374525,4.199375 L8.41374525,9.214375 L7.32963878,9.214375 L7.32963878,9.21375 Z" id="Shape"></path>
                        <path d="M13.6460646,6.206875 C13.6460646,5.673125 13.7238593,5.206875 13.8794487,4.808125 C14.035038,4.409375 14.2408175,4.07875 14.4967871,3.815625 C14.753384,3.553125 15.048251,3.355625 15.3826426,3.22375 C15.7170342,3.0925 16.0589544,3.026875 16.408403,3.026875 C17.2239924,3.026875 17.8494867,3.280625 18.2848859,3.786875 C18.7196578,4.294375 18.9373574,5.065625 18.9373574,6.103125 L18.9373574,6.283125 C18.9373574,6.356875 18.9335932,6.424375 18.9254373,6.48625 L14.776597,6.48625 C14.8230228,7.113125 15.0055894,7.589375 15.3242966,7.914375 C15.6430038,8.239375 16.1398859,8.401875 16.8161977,8.401875 C17.1963878,8.401875 17.5169772,8.36875 17.7773384,8.303125 C18.0376996,8.2375 18.2340684,8.173125 18.3658175,8.11125 L18.5176426,9.016875 C18.3852662,9.086875 18.1543916,9.16 17.8243916,9.2375 C17.4943916,9.315 17.1192205,9.35375 16.7001331,9.35375 C16.1718821,9.35375 15.7157795,9.274375 15.3305703,9.115625 C14.9459886,8.956875 14.6291635,8.738125 14.3807224,8.459375 C14.1322814,8.180625 13.9478327,7.85 13.8273764,7.466875 C13.7062928,7.083125 13.6460646,6.66375 13.6460646,6.206875 L13.6460646,6.206875 Z M17.8061977,5.615 C17.8137262,5.1275 17.6913878,4.726875 17.4391825,4.41375 C17.1863498,4.1 16.8387833,3.94375 16.3958555,3.94375 C16.1474144,3.94375 15.9278327,3.9925 15.7377376,4.08875 C15.5470152,4.185625 15.3857795,4.31125 15.2540304,4.46625 C15.121654,4.62125 15.0187643,4.79875 14.9453612,5 C14.8713308,5.20125 14.8230228,5.40625 14.7998099,5.615 L17.8061977,5.615 L17.8061977,5.615 Z" id="Shape"></path>
                        <path d="M28.3411027,1.16875 L29.471635,1.16875 L29.471635,9.214375 L28.3411027,9.214375 L28.3411027,5.499375 L24.3905133,5.499375 L24.3905133,9.214375 L23.259981,9.214375 L23.259981,1.16875 L24.3905133,1.16875 L24.3905133,4.52375 L28.3411027,4.52375 L28.3411027,1.16875 L28.3411027,1.16875 Z" id="Shape"></path>
                        <path d="M31.0676806,6.206875 C31.0676806,5.673125 31.1454753,5.206875 31.3010646,4.808125 C31.4560266,4.409375 31.6618061,4.07875 31.918403,3.815625 C32.1743726,3.553125 32.4698669,3.355625 32.8042586,3.22375 C33.1373954,3.0925 33.4793156,3.026875 33.830019,3.026875 C34.6462357,3.026875 35.2711027,3.280625 35.7058745,3.786875 C36.1406464,4.294375 36.3589734,5.065625 36.3589734,6.103125 L36.3589734,6.283125 C36.3589734,6.356875 36.3539544,6.424375 36.3464259,6.48625 L32.1975856,6.48625 C32.2440114,7.113125 32.4265779,7.589375 32.7452852,7.914375 C33.0639924,8.239375 33.5615019,8.401875 34.2378137,8.401875 C34.6173764,8.401875 34.9385932,8.36875 35.198327,8.303125 C35.4593156,8.2375 35.6556844,8.173125 35.7874335,8.11125 L35.9380038,9.016875 C35.8056274,9.086875 35.5753802,9.16 35.2447529,9.2375 C34.9153802,9.315 34.5402091,9.35375 34.1211217,9.35375 C33.591616,9.35375 33.1361407,9.274375 32.7509316,9.115625 C32.3663498,8.956875 32.0501521,8.738125 31.8010837,8.459375 C31.5520152,8.180625 31.3688213,7.85 31.2489924,7.466875 C31.1279087,7.083125 31.0676806,6.66375 31.0676806,6.206875 L31.0676806,6.206875 Z M35.2284411,5.615 C35.2359696,5.1275 35.1130038,4.726875 34.8607985,4.41375 C34.6085932,4.1 34.261654,3.94375 33.8180989,3.94375 C33.5696578,3.94375 33.350076,3.9925 33.159981,4.08875 C32.9686312,4.185625 32.8080228,4.31125 32.6762738,4.46625 C32.5445247,4.62125 32.4403802,4.798125 32.3669772,5 C32.2935741,5.20125 32.2446388,5.40625 32.2214259,5.615 L35.2284411,5.615 L35.2284411,5.615 Z" id="Shape"></path>
                        <path d="M39.8779278,3.02625 C40.3126996,3.02625 40.6797148,3.0825 40.9796008,3.194375 C41.2788593,3.306875 41.5191445,3.465625 41.701711,3.670625 C41.8842776,3.875625 42.0141445,4.119375 42.0919392,4.401875 C42.1697338,4.684375 42.2086312,4.995625 42.2086312,5.33625 L42.2086312,9.109375 C42.1157795,9.125 41.9859125,9.14625 41.818403,9.173125 C41.6508935,9.2 41.463308,9.225 41.2537643,9.24875 C41.0435932,9.271875 40.8164829,9.293125 40.5718061,9.3125 C40.3271293,9.331875 40.0843346,9.34125 39.8434221,9.34125 C39.5015019,9.34125 39.1865589,9.30625 38.8992205,9.236875 C38.6118821,9.1675 38.3634411,9.056875 38.1538973,8.90625 C37.9443536,8.755 37.7806084,8.55625 37.6645437,8.308125 C37.5484791,8.06 37.4901331,7.7625 37.4901331,7.41375 C37.4901331,7.08125 37.5578897,6.795 37.6940304,6.554375 C37.8295437,6.315 38.0146198,6.12125 38.2473764,5.97375 C38.4807605,5.826875 38.7524144,5.718125 39.0635932,5.64875 C39.3741445,5.579375 39.7003802,5.544375 40.0429278,5.544375 C40.1514639,5.544375 40.2643916,5.55 40.3804563,5.561875 C40.4965209,5.57375 40.6075665,5.58875 40.7123384,5.608125 C40.8171103,5.6275 40.9080798,5.645 40.9865019,5.66 C41.0642966,5.675625 41.1188783,5.686875 41.1502471,5.695 L41.1502471,5.393125 C41.1502471,5.215 41.1307985,5.039375 41.0912738,4.865 C41.0523764,4.69125 40.9827376,4.53625 40.88173,4.400625 C40.7807224,4.265 40.6426996,4.156875 40.468289,4.075 C40.293251,3.99375 40.0661407,3.953125 39.7863308,3.953125 C39.4293536,3.953125 39.1162928,3.97875 38.848403,4.02875 C38.5798859,4.079375 38.3803802,4.131875 38.2480038,4.185625 L38.120019,3.291875 C38.259924,3.23 38.493308,3.17 38.8189163,3.111875 C39.1438973,3.055 39.4977376,3.02625 39.8779278,3.02625 L39.8779278,3.02625 Z M39.9707795,8.43625 C40.2273764,8.43625 40.4544867,8.430625 40.6527376,8.41875 C40.8509886,8.406875 41.0159886,8.38625 41.148365,8.355 L41.148365,6.555625 C41.0705703,6.516875 40.9444677,6.484375 40.7694297,6.456875 C40.595019,6.43 40.3829658,6.41625 40.1345247,6.41625 C39.9707795,6.41625 39.798251,6.428125 39.6156844,6.45125 C39.4331179,6.474375 39.2662357,6.523125 39.1144106,6.59625 C38.9632129,6.67 38.8371103,6.770625 38.7354753,6.898125 C38.6344677,7.025625 38.5842776,7.194375 38.5842776,7.403125 C38.5842776,7.790625 38.7084981,8.059375 38.9575665,8.21 C39.2060076,8.360625 39.5441635,8.43625 39.9707795,8.43625 L39.9707795,8.43625 Z" id="Shape"></path>
                        <path d="M45.821692,9.33 C45.1535361,9.314375 44.6798669,9.171875 44.3994297,8.900625 C44.1202471,8.629375 43.9803422,8.208125 43.9803422,7.635 L43.9803422,0.390625 L45.0644487,0.205 L45.0644487,7.46125 C45.0644487,7.639375 45.0795057,7.78625 45.1108745,7.9025 C45.141616,8.01875 45.1924335,8.11125 45.2620722,8.18125 C45.331711,8.25125 45.4251901,8.303125 45.5412548,8.338125 C45.6585741,8.373125 45.801616,8.401875 45.9728897,8.425 L45.821692,9.33 L45.821692,9.33 Z" id="Shape"></path>
                        <path d="M48.1994487,3.176875 L50.495019,3.176875 L50.495019,4.0825 L48.1994487,4.0825 L48.1994487,6.86875 C48.1994487,7.170625 48.2226616,7.42 48.2690875,7.6175 C48.3155133,7.815 48.3857795,7.97 48.4786312,8.081875 C48.5714829,8.194375 48.6881749,8.27375 48.8287072,8.32 C48.9686122,8.36625 49.1311027,8.389375 49.3180608,8.389375 C49.6442966,8.389375 49.9065399,8.3525 50.1041635,8.279375 C50.3024144,8.205625 50.4404373,8.15375 50.5182319,8.1225 L50.7277757,9.01625 C50.6186122,9.070625 50.4285171,9.138125 50.1568631,9.219375 C49.8852091,9.300625 49.5740304,9.34125 49.2245817,9.34125 C48.8130228,9.34125 48.4736122,9.289375 48.2050951,9.185 C47.9372053,9.080625 47.7213878,8.92375 47.55827,8.715 C47.3951521,8.50625 47.2809696,8.24875 47.2144677,7.943125 C47.1485932,7.6375 47.1159696,7.28375 47.1159696,6.88125 L47.1159696,1.49375 L48.200076,1.308125 L48.200076,3.176875 L48.1994487,3.176875 Z" id="Shape"></path>
                        <path d="M51.8696008,9.21375 L51.8696008,0.390625 L52.9537072,0.205 L52.9537072,3.293125 C53.1550951,3.215625 53.3709125,3.155625 53.5999049,3.113125 C53.8288973,3.070625 54.056635,3.049375 54.2818631,3.049375 C54.7636882,3.049375 55.163327,3.116875 55.4820342,3.2525 C55.8007414,3.388125 56.0548289,3.578125 56.2455513,3.82125 C56.4362738,4.065 56.5699049,4.3575 56.6476996,4.698125 C56.7254943,5.03875 56.765019,5.414375 56.765019,5.824375 L56.765019,9.214375 L55.6809125,9.214375 L55.6809125,6.05625 C55.6809125,5.684375 55.6551901,5.3675 55.605,5.104375 C55.5541825,4.84125 55.4707414,4.628125 55.3546768,4.46625 C55.2379848,4.30375 55.0823954,4.185625 54.8885361,4.111875 C54.6940494,4.03875 54.4537643,4.001875 54.1664259,4.001875 C54.0497338,4.001875 53.9292776,4.01 53.805057,4.025 C53.6808365,4.040625 53.5622624,4.058125 53.449962,4.076875 C53.3370342,4.09625 53.2360266,4.1175 53.1469392,4.14125 C53.0578517,4.164375 52.9938593,4.18375 52.954962,4.199375 L52.954962,9.214375 L51.8696008,9.214375 L51.8696008,9.21375 Z" id="Shape"></path>
                        <path d="M67.9160076,5.185 C67.9160076,5.881875 67.8068441,6.4875 67.5891445,7.001875 C67.3714449,7.516875 67.0646578,7.941875 66.6687833,8.27875 C66.2722814,8.615625 65.7979848,8.866875 65.2465209,9.033125 C64.6944297,9.2 64.088384,9.2825 63.4290114,9.2825 C63.1021483,9.2825 62.7426616,9.269375 62.3505513,9.241875 C61.9584411,9.214375 61.603346,9.1625 61.2846388,9.085625 L61.2846388,1.284375 C61.603346,1.206875 61.9584411,1.155 62.3505513,1.128125 C62.7426616,1.10125 63.1021483,1.0875 63.4290114,1.0875 C64.0890114,1.0875 64.695057,1.170625 65.2465209,1.336875 C65.7979848,1.50375 66.2722814,1.755 66.6687833,2.091875 C67.0646578,2.42875 67.3714449,2.854375 67.5891445,3.36875 C67.8068441,3.883125 67.9160076,4.48875 67.9160076,5.185 L67.9160076,5.185 Z M63.5224905,8.296875 C64.5946768,8.296875 65.3945817,8.02375 65.9228327,7.478125 C66.4510837,6.9325 66.7158365,6.168125 66.7158365,5.185 C66.7158365,4.2025 66.4510837,3.438125 65.9228327,2.8925 C65.3945817,2.346875 64.5946768,2.07375 63.5224905,2.07375 C63.2037833,2.07375 62.9572243,2.0775 62.7821863,2.085625 C62.6077757,2.09375 62.4848099,2.10125 62.4151711,2.10875 L62.4151711,8.261875 C62.4848099,8.269375 62.6077757,8.2775 62.7821863,8.285 C62.956597,8.2925 63.2044106,8.296875 63.5224905,8.296875 L63.5224905,8.296875 Z" id="Shape"></path>
                        <path d="M69.1864449,6.206875 C69.1864449,5.673125 69.2642395,5.206875 69.4192015,4.808125 C69.5747909,4.409375 69.7805703,4.07875 70.0371673,3.815625 C70.2931369,3.553125 70.5886312,3.355625 70.9223954,3.22375 C71.2561597,3.0925 71.5980798,3.026875 71.9481559,3.026875 C72.7643726,3.026875 73.3892395,3.280625 73.8240114,3.786875 C74.2587833,4.294375 74.4771103,5.065625 74.4771103,6.103125 L74.4771103,6.283125 C74.4771103,6.356875 74.4727186,6.424375 74.4651901,6.48625 L70.3163498,6.48625 C70.3627757,7.113125 70.5453422,7.589375 70.8640494,7.914375 C71.1827567,8.239375 71.6802662,8.401875 72.3559506,8.401875 C72.7361407,8.401875 73.05673,8.36875 73.3170913,8.303125 C73.5774525,8.2375 73.7738213,8.173125 73.9055703,8.11125 L74.0567681,9.016875 C73.9243916,9.086875 73.6935171,9.16 73.3635171,9.2375 C73.0335171,9.315 72.658346,9.35375 72.2392586,9.35375 C71.7103802,9.35375 71.2542776,9.274375 70.8696958,9.115625 C70.4851141,8.956875 70.168289,8.738125 69.9192205,8.459375 C69.6701521,8.180625 69.4863308,7.85 69.3658745,7.466875 C69.246673,7.083125 69.1864449,6.66375 69.1864449,6.206875 L69.1864449,6.206875 Z M73.3472053,5.615 C73.3547338,5.1275 73.2317681,4.726875 72.9795627,4.41375 C72.7273574,4.1 72.3797909,3.94375 71.9368631,3.94375 C71.6884221,3.94375 71.4688403,3.9925 71.2781179,4.08875 C71.0873954,4.185625 70.9261597,4.31125 70.7944106,4.46625 C70.6620342,4.62125 70.5591445,4.79875 70.4857414,5 C70.411711,5.20125 70.363403,5.40625 70.3401901,5.615 L73.3472053,5.615 L73.3472053,5.615 Z" id="Shape"></path>
                        <path d="M80.7703232,3.176875 C80.4679278,4.306875 80.1122053,5.390625 79.7044106,6.4275 C79.296616,7.465 78.9019962,8.39375 78.5211787,9.21375 L77.5418441,9.21375 C77.161654,8.39375 76.7676616,7.465 76.3592395,6.4275 C75.9514449,5.390625 75.5957224,4.306875 75.2926996,3.176875 L76.4577376,3.176875 C76.5512167,3.55625 76.661635,3.960625 76.7902471,4.39 C76.9182319,4.82 77.0537452,5.245625 77.1974144,5.666875 C77.3410837,6.08875 77.4872624,6.496875 77.6346958,6.891875 C77.7815019,7.28625 77.9220342,7.63875 78.0537833,7.948125 C78.1861597,7.63875 78.3260646,7.28625 78.4734981,6.891875 C78.6209316,6.496875 78.7671103,6.08875 78.9101521,5.666875 C79.0538213,5.245 79.189962,4.819375 79.3179468,4.39 C79.4459316,3.960625 79.5569772,3.55625 79.6498289,3.176875 L80.7703232,3.176875 L80.7703232,3.176875 Z" id="Shape"></path>
                        <path d="M81.3876616,6.206875 C81.3876616,5.673125 81.4654563,5.206875 81.6204183,4.808125 C81.7760076,4.409375 81.9817871,4.07875 82.238384,3.815625 C82.4943536,3.553125 82.7898479,3.355625 83.1236122,3.22375 C83.4573764,3.0925 83.7992966,3.026875 84.1493726,3.026875 C84.9655894,3.026875 85.5904563,3.280625 86.0252281,3.786875 C86.46,4.294375 86.678327,5.065625 86.678327,6.103125 L86.678327,6.283125 C86.678327,6.356875 86.6739354,6.424375 86.6664068,6.48625 L82.5175665,6.48625 C82.5639924,7.113125 82.7465589,7.589375 83.0652662,7.914375 C83.3839734,8.239375 83.8814829,8.401875 84.5571673,8.401875 C84.9373574,8.401875 85.2579468,8.36875 85.518308,8.303125 C85.7786692,8.2375 85.975038,8.173125 86.1067871,8.11125 L86.2579848,9.016875 C86.1256084,9.086875 85.8947338,9.16 85.5647338,9.2375 C85.2347338,9.315 84.8595627,9.35375 84.4404753,9.35375 C83.911597,9.35375 83.4554943,9.274375 83.0709125,9.115625 C82.6863308,8.956875 82.3695057,8.738125 82.1204373,8.459375 C81.8713688,8.180625 81.6875475,7.85 81.5670913,7.466875 C81.4478897,7.083125 81.3876616,6.66375 81.3876616,6.206875 L81.3876616,6.206875 Z M85.5484221,5.615 C85.5559506,5.1275 85.4329848,4.726875 85.1807795,4.41375 C84.9285741,4.1 84.5810076,3.94375 84.1380798,3.94375 C83.8896388,3.94375 83.670057,3.9925 83.4793346,4.08875 C83.2886122,4.185625 83.1273764,4.31125 82.9956274,4.46625 C82.863251,4.62125 82.7603612,4.79875 82.6869582,5 C82.6129278,5.20125 82.5646198,5.40625 82.5414068,5.615 L85.5484221,5.615 L85.5484221,5.615 Z" id="Shape"></path>
                        <path d="M90.0580038,9.33 C89.3898479,9.314375 88.9161787,9.171875 88.6357414,8.900625 C88.3565589,8.629375 88.216654,8.208125 88.216654,7.635 L88.216654,0.390625 L89.3007605,0.205 L89.3007605,7.46125 C89.3007605,7.639375 89.3158175,7.78625 89.3471863,7.9025 C89.3779278,8.01875 89.4287452,8.11125 89.498384,8.18125 C89.5680228,8.25125 89.6615019,8.303125 89.7775665,8.338125 C89.8948859,8.373125 90.0379278,8.401875 90.2092015,8.425 L90.0580038,9.33 L90.0580038,9.33 Z" id="Shape"></path>
                        <path d="M96.7709316,6.195625 C96.7709316,6.675625 96.7012928,7.10875 96.5613878,7.49625 C96.4214829,7.88375 96.2251141,8.215625 95.9729087,8.494375 C95.7207034,8.773125 95.4195627,8.988125 95.0701141,9.13875 C94.7206654,9.289375 94.3398479,9.365 93.928289,9.365 C93.51673,9.365 93.1359125,9.289375 92.7864639,9.13875 C92.4370152,8.9875 92.1358745,8.773125 91.8836692,8.494375 C91.6314639,8.215625 91.4350951,7.883125 91.2951901,7.49625 C91.1552852,7.109375 91.0856464,6.67625 91.0856464,6.195625 C91.0856464,5.72375 91.1552852,5.291875 91.2951901,4.90125 C91.4357224,4.510625 91.6314639,4.175625 91.8836692,3.8975 C92.1358745,3.619375 92.4376426,3.40375 92.7864639,3.253125 C93.1365399,3.1025 93.51673,3.026875 93.928289,3.026875 C94.3398479,3.026875 94.7212928,3.1025 95.0701141,3.253125 C95.4201901,3.404375 95.7207034,3.61875 95.9729087,3.8975 C96.2251141,4.17625 96.4221103,4.510625 96.5613878,4.90125 C96.7006654,5.291875 96.7709316,5.723125 96.7709316,6.195625 L96.7709316,6.195625 Z M95.6403992,6.195625 C95.6403992,5.515 95.4873194,4.975 95.1805323,4.57625 C94.8737452,4.1775 94.4559125,3.978125 93.9276616,3.978125 C93.3994106,3.978125 92.9815779,4.1775 92.6747909,4.57625 C92.3680038,4.975 92.214924,5.515 92.214924,6.195625 C92.214924,6.876875 92.3680038,7.416875 92.6747909,7.815 C92.9815779,8.213125 93.3994106,8.413125 93.9276616,8.413125 C94.4559125,8.413125 94.8737452,8.21375 95.1805323,7.815 C95.4873194,7.41625 95.6403992,6.87625 95.6403992,6.195625 L95.6403992,6.195625 Z" id="Shape"></path>
                        <path d="M103.63443,6.206875 C103.63443,6.66375 103.574202,7.085625 103.454373,7.4725 C103.333916,7.859375 103.156369,8.191875 102.923612,8.470625 C102.690856,8.749375 102.405399,8.96625 102.067243,9.12125 C101.729087,9.27625 101.342624,9.35375 100.907224,9.35375 C100.557776,9.35375 100.249106,9.306875 99.9805894,9.214375 C99.7126996,9.121875 99.5125665,9.0325 99.3808175,8.9475 L99.3808175,11.3625 L98.296711,11.3625 L98.296711,3.3625 C98.5526806,3.300625 98.87327,3.2325 99.2578517,3.159375 C99.6424335,3.08625 100.086616,3.049375 100.592281,3.049375 C101.058422,3.049375 101.47751,3.123125 101.850798,3.27 C102.224087,3.416875 102.542795,3.62625 102.806293,3.896875 C103.069791,4.1675 103.274316,4.49875 103.417985,4.889375 C103.562909,5.28 103.63443,5.719375 103.63443,6.206875 L103.63443,6.206875 Z M102.503897,6.206875 C102.503897,5.503125 102.329487,4.960625 101.979411,4.58125 C101.629962,4.2025 101.163821,4.0125 100.580989,4.0125 C100.254125,4.0125 100.000038,4.024375 99.8174715,4.0475 C99.6349049,4.070625 99.4893536,4.098125 99.3808175,4.12875 L99.3808175,7.93625 C99.5125665,8.045 99.703289,8.149375 99.95173,8.25 C100.200171,8.350625 100.471825,8.400625 100.767319,8.400625 C101.077871,8.400625 101.344506,8.344375 101.565342,8.231875 C101.786806,8.12 101.96749,7.965 102.107395,7.7675 C102.2473,7.57 102.347681,7.3375 102.409791,7.070625 C102.472529,6.805 102.503897,6.516875 102.503897,6.206875 L102.503897,6.206875 Z" id="Shape"></path>
                        <path d="M104.823308,6.206875 C104.823308,5.673125 104.901103,5.206875 105.056065,4.808125 C105.211654,4.409375 105.417433,4.07875 105.67403,3.815625 C105.93,3.553125 106.225494,3.355625 106.559259,3.22375 C106.893023,3.0925 107.234943,3.026875 107.585019,3.026875 C108.401236,3.026875 109.026103,3.280625 109.460875,3.786875 C109.895646,4.294375 110.113973,5.065625 110.113973,6.103125 L110.113973,6.283125 C110.113973,6.356875 110.109582,6.424375 110.102053,6.48625 L105.953213,6.48625 C105.999639,7.113125 106.182205,7.589375 106.500913,7.914375 C106.81962,8.239375 107.317129,8.401875 107.992814,8.401875 C108.373004,8.401875 108.693593,8.36875 108.953954,8.303125 C109.214316,8.2375 109.410684,8.173125 109.542433,8.11125 L109.693631,9.016875 C109.561255,9.086875 109.33038,9.16 109.00038,9.2375 C108.67038,9.315 108.295209,9.35375 107.876122,9.35375 C107.347243,9.35375 106.891141,9.274375 106.506559,9.115625 C106.121977,8.956875 105.805152,8.738125 105.556084,8.459375 C105.307015,8.180625 105.123194,7.85 105.002738,7.466875 C104.882909,7.083125 104.823308,6.66375 104.823308,6.206875 L104.823308,6.206875 Z M108.983441,5.615 C108.99097,5.1275 108.868004,4.726875 108.615798,4.41375 C108.363593,4.1 108.016027,3.94375 107.573099,3.94375 C107.324658,3.94375 107.105076,3.9925 106.914354,4.08875 C106.723631,4.185625 106.562395,4.31125 106.430646,4.46625 C106.29827,4.62125 106.19538,4.79875 106.121977,5 C106.047947,5.20125 105.999639,5.40625 105.976426,5.615 L108.983441,5.615 L108.983441,5.615 Z" id="Shape"></path>
                        <path d="M113.913365,3.049375 C114.006217,3.049375 114.112871,3.055 114.233954,3.066875 C114.353783,3.07875 114.472985,3.09375 114.589049,3.113125 C114.705114,3.1325 114.811768,3.151875 114.909639,3.17125 C115.006255,3.190625 115.07903,3.208125 115.125456,3.223125 L114.939125,4.16375 C114.853175,4.133125 114.712015,4.09625 114.513137,4.053125 C114.315513,4.010625 114.060171,3.989375 113.74962,3.989375 C113.548232,3.989375 113.347471,4.010625 113.149848,4.053125 C112.951597,4.095625 112.82173,4.125 112.75962,4.140625 L112.75962,9.21375 L111.675513,9.21375 L111.675513,3.4325 C111.931483,3.34 112.25019,3.2525 112.63038,3.17125 C113.011825,3.09 113.439068,3.049375 113.913365,3.049375 L113.913365,3.049375 Z" id="Shape"></path>
                        <path d="M124.470856,9.21375 C124.300209,8.9275 124.10384,8.60625 123.882376,8.25 C123.660913,7.89375 123.42251,7.524375 123.165285,7.14125 C122.909316,6.758125 122.642681,6.369375 122.36789,5.974375 C122.091844,5.58 121.817681,5.19875 121.546027,4.830625 C121.273745,4.463125 121.010247,4.11625 120.753023,3.79125 C120.497053,3.46625 120.259905,3.18 120.042205,2.931875 L120.042205,9.2125 L118.934886,9.2125 L118.934886,1.16875 L119.832034,1.16875 C120.197167,1.555625 120.588023,2.00625 121.003346,2.52125 C121.418669,3.03625 121.830856,3.565625 122.23865,4.11125 C122.646445,4.656875 123.031654,5.193125 123.392395,5.719375 C123.753764,6.245625 124.058669,6.71375 124.307738,7.124375 L124.307738,1.16875 L125.415057,1.16875 L125.415057,9.214375 L124.470856,9.214375 L124.470856,9.21375 Z" id="Shape"></path>
                        <path d="M127.01173,6.206875 C127.01173,5.673125 127.089525,5.206875 127.244487,4.808125 C127.400076,4.409375 127.605856,4.07875 127.862452,3.815625 C128.118422,3.553125 128.413916,3.355625 128.747681,3.22375 C129.081445,3.0925 129.423365,3.026875 129.773441,3.026875 C130.589658,3.026875 131.214525,3.280625 131.649297,3.786875 C132.084068,4.294375 132.302395,5.065625 132.302395,6.103125 L132.302395,6.283125 C132.302395,6.356875 132.298004,6.424375 132.290475,6.48625 L128.141635,6.48625 C128.188061,7.113125 128.370627,7.589375 128.689335,7.914375 C129.008042,8.239375 129.505551,8.401875 130.181236,8.401875 C130.561426,8.401875 130.882015,8.36875 131.142376,8.303125 C131.402738,8.2375 131.599106,8.173125 131.730856,8.11125 L131.882053,9.016875 C131.749677,9.086875 131.518802,9.16 131.188802,9.2375 C130.858802,9.315 130.483631,9.35375 130.064544,9.35375 C129.535665,9.35375 129.079563,9.274375 128.694981,9.115625 C128.310399,8.956875 127.993574,8.738125 127.744506,8.459375 C127.495437,8.180625 127.311616,7.85 127.19116,7.466875 C127.071331,7.083125 127.01173,6.66375 127.01173,6.206875 L127.01173,6.206875 Z M131.17249,5.615 C131.180019,5.1275 131.057053,4.726875 130.804848,4.41375 C130.552643,4.1 130.205076,3.94375 129.762148,3.94375 C129.513707,3.94375 129.294125,3.9925 129.103403,4.08875 C128.912681,4.185625 128.751445,4.31125 128.619696,4.46625 C128.487319,4.62125 128.38443,4.79875 128.311027,5 C128.236996,5.20125 128.188688,5.40625 128.165475,5.615 L131.17249,5.615 L131.17249,5.615 Z" id="Shape"></path>
                        <path d="M134.877776,3.176875 L137.173346,3.176875 L137.173346,4.0825 L134.877776,4.0825 L134.877776,6.86875 C134.877776,7.170625 134.900989,7.42 134.947414,7.6175 C134.99384,7.815 135.064106,7.97 135.156958,8.081875 C135.24981,8.194375 135.366502,8.27375 135.507034,8.32 C135.646939,8.36625 135.80943,8.389375 135.996388,8.389375 C136.322624,8.389375 136.584867,8.3525 136.78249,8.279375 C136.980741,8.205625 137.118764,8.15375 137.196559,8.1225 L137.406103,9.01625 C137.296939,9.070625 137.106844,9.138125 136.83519,9.219375 C136.563536,9.300625 136.252357,9.34125 135.902909,9.34125 C135.49135,9.34125 135.151939,9.289375 134.883422,9.185 C134.615532,9.080625 134.399715,8.92375 134.236597,8.715 C134.073479,8.50625 133.959297,8.24875 133.892795,7.943125 C133.82692,7.6375 133.794297,7.28375 133.794297,6.88125 L133.794297,1.49375 L134.878403,1.308125 L134.878403,3.176875 L134.877776,3.176875 Z" id="Shape"></path>
                        <path d="M143.501692,9.21375 C143.283365,8.65625 143.05249,8.02 142.808441,7.30375 C142.563137,6.588125 142.340418,5.843125 142.138403,5.06875 C141.936388,5.8425 141.714924,6.588125 141.474011,7.30375 C141.233099,8.02 141.004106,8.65625 140.786407,9.21375 L139.842205,9.21375 C139.485228,8.416875 139.135152,7.5075 138.793232,6.485625 C138.451312,5.46375 138.12884,4.36125 137.825817,3.176875 L138.990856,3.176875 C139.06865,3.540625 139.161502,3.935625 139.270665,4.36125 C139.379202,4.786875 139.493384,5.213125 139.614468,5.638125 C139.734924,6.06375 139.861654,6.47375 139.993403,6.86875 C140.125779,7.26375 140.25,7.608125 140.366692,7.901875 C140.498441,7.538125 140.628935,7.153125 140.75692,6.746875 C140.884905,6.340625 141.007243,5.930625 141.123935,5.51625 C141.241255,5.101875 141.351046,4.69625 141.455817,4.296875 C141.561217,3.898125 141.652186,3.525 141.729981,3.176875 L142.627757,3.176875 C142.697395,3.525 142.783346,3.89875 142.884354,4.296875 C142.984734,4.695625 143.093897,5.101875 143.210589,5.51625 C143.327281,5.930625 143.44962,6.340625 143.577605,6.746875 C143.706217,7.153125 143.836084,7.538125 143.967833,7.901875 C144.085152,7.608125 144.206863,7.26375 144.335475,6.86875 C144.46346,6.474375 144.589563,6.06375 144.714411,5.638125 C144.838631,5.2125 144.955323,4.786875 145.063859,4.36125 C145.173023,3.935625 145.265875,3.54125 145.343669,3.176875 L146.462281,3.176875 C146.159259,4.36125 145.836787,5.46375 145.494867,6.485625 C145.152947,7.5075 144.802871,8.416875 144.445894,9.21375 L143.501692,9.21375 L143.501692,9.21375 Z" id="Shape"></path>
                        <path d="M152.812586,6.195625 C152.812586,6.675625 152.742947,7.10875 152.603042,7.49625 C152.463137,7.88375 152.266768,8.215625 152.014563,8.494375 C151.762357,8.773125 151.461217,8.988125 151.111768,9.13875 C150.762319,9.289375 150.381502,9.365 149.969943,9.365 C149.558384,9.365 149.177567,9.289375 148.828118,9.13875 C148.478669,8.9875 148.177529,8.773125 147.925323,8.494375 C147.673118,8.215625 147.476749,7.883125 147.336844,7.49625 C147.196939,7.109375 147.1273,6.67625 147.1273,6.195625 C147.1273,5.72375 147.196939,5.291875 147.336844,4.90125 C147.477376,4.510625 147.673118,4.175625 147.925323,3.8975 C148.177529,3.619375 148.479297,3.40375 148.828118,3.253125 C149.178194,3.1025 149.558384,3.026875 149.969943,3.026875 C150.381502,3.026875 150.762947,3.1025 151.111768,3.253125 C151.461844,3.404375 151.762357,3.61875 152.014563,3.8975 C152.266768,4.17625 152.463764,4.510625 152.603042,4.90125 C152.742319,5.291875 152.812586,5.723125 152.812586,6.195625 L152.812586,6.195625 Z M151.682053,6.195625 C151.682053,5.515 151.528973,4.975 151.222186,4.57625 C150.915399,4.1775 150.497567,3.978125 149.969316,3.978125 C149.441065,3.978125 149.023232,4.1775 148.716445,4.57625 C148.409658,4.975 148.256578,5.515 148.256578,6.195625 C148.256578,6.876875 148.409658,7.416875 148.716445,7.815 C149.023232,8.213125 149.441065,8.413125 149.969316,8.413125 C150.497567,8.413125 150.915399,8.21375 151.222186,7.815 C151.528973,7.41625 151.682053,6.87625 151.682053,6.195625 L151.682053,6.195625 Z" id="Shape"></path>
                        <path d="M156.576844,3.049375 C156.669696,3.049375 156.77635,3.055 156.897433,3.066875 C157.017262,3.07875 157.136464,3.09375 157.252529,3.113125 C157.368593,3.1325 157.475247,3.151875 157.573118,3.17125 C157.669734,3.190625 157.74251,3.208125 157.788935,3.223125 L157.602605,4.16375 C157.516654,4.133125 157.375494,4.09625 157.176616,4.053125 C156.978992,4.010625 156.72365,3.989375 156.413099,3.989375 C156.211711,3.989375 156.010951,4.010625 155.813327,4.053125 C155.615076,4.095625 155.485209,4.125 155.423099,4.140625 L155.423099,9.21375 L154.338992,9.21375 L154.338992,3.4325 C154.594962,3.34 154.913669,3.2525 155.293859,3.17125 C155.675304,3.09 156.102548,3.049375 156.576844,3.049375 L156.576844,3.049375 Z" id="Shape"></path>
                        <path d="M161.02808,5.89375 C161.260837,6.071875 161.507395,6.2925 161.767757,6.555625 C162.028118,6.81875 162.284715,7.103125 162.537548,7.40875 C162.789753,7.715 163.028783,8.024375 163.254639,8.3375 C163.47924,8.650625 163.669962,8.943125 163.825551,9.21375 L162.555114,9.21375 C162.391996,8.943125 162.203783,8.66625 161.990475,8.38375 C161.777167,8.10125 161.553821,7.830625 161.320437,7.57125 C161.087681,7.311875 160.850532,7.074375 160.60962,6.856875 C160.368707,6.640625 160.139715,6.45875 159.922015,6.31125 L159.922015,9.21375 L158.837909,9.21375 L158.837909,0.390625 L159.922015,0.205 L159.922015,5.708125 C160.108346,5.5225 160.314125,5.3175 160.539354,5.093125 C160.763954,4.86875 160.986046,4.64 161.203745,4.408125 C161.421445,4.175625 161.627224,3.953125 161.821084,3.740625 C162.01557,3.528125 162.182452,3.34 162.322357,3.1775 L163.592167,3.1775 C163.413365,3.37125 163.219506,3.58375 163.009335,3.815625 C162.799791,4.048125 162.582091,4.2825 162.356863,4.518125 C162.131635,4.754375 161.903897,4.99 161.674905,5.22625 C161.445285,5.461875 161.230095,5.684375 161.02808,5.89375 L161.02808,5.89375 Z" id="Shape"></path>
                    </g>
                </g>
            </g>
        </g>
    </g>
</svg>