<?xml version="1.0" encoding="UTF-8" standalone="no"?>
<svg width="196px" height="197px" viewBox="0 0 196 197" version="1.1" xmlns="http://www.w3.org/2000/svg" xmlns:xlink="http://www.w3.org/1999/xlink" xmlns:sketch="http://www.bohemiancoding.com/sketch/ns">
    <!-- Generator: Sketch 3.4.4 (17249) - http://www.bohemiancoding.com/sketch -->
    <title>wordpress-logo-stacked-cmyk</title>
    <desc>Created with Sketch.</desc>
    <defs></defs>
    <g id="Page-1" stroke="none" stroke-width="1" fill="none" fill-rule="evenodd" sketch:type="MSPage">
        <g id="GeoSLAM_Case_study" sketch:type="MSArtboardGroup" transform="translate(-225.000000, -3242.000000)" fill="#3E3D39">
            <g id="wordpress-logo-stacked-cmyk" sketch:type="MSLayerGroup" transform="translate(225.000000, 3242.000000)">
                <path d="M14.1366559,98.4957155 C14.1366559,131.738829 33.4173448,160.46836 61.3783718,174.083103 L21.3937676,64.315355 C16.7459042,74.7618454 14.1366559,86.3204756 14.1366559,98.4957155" id="Fill-15" sketch:type="MSShapeGroup"></path>
                <path d="M154.541962,94.2585975 C154.541962,83.8793736 150.820539,76.690825 147.629468,71.0964928 C143.382167,64.1770102 139.396686,58.3180964 139.396686,51.400856 C139.396686,43.6809019 145.24176,36.4923532 153.472305,36.4923532 C153.843776,36.4923532 154.197345,36.5394398 154.559865,36.5618619 C139.647317,22.8708831 119.78033,14.511897 97.9575265,14.511897 C68.6739732,14.511897 42.9126813,29.566144 27.9218114,52.3672517 C29.8910554,52.4277916 31.743935,52.4681515 33.3193302,52.4681515 C42.0847037,52.4681515 55.6568228,51.400856 55.6568228,51.400856 C60.1748951,51.1340322 60.7074861,57.7844487 56.1938894,58.3180964 C56.1938894,58.3180964 51.6512015,58.8539863 46.6005382,59.1208102 L77.1238202,150.094293 L95.4691182,94.9693804 L82.4094501,59.1208102 C77.8958533,58.8539863 73.6172232,58.3180964 73.6172232,58.3180964 C69.1013887,58.0535148 69.6317419,51.1340322 74.1498142,51.400856 C74.1498142,51.400856 87.9904666,52.4681515 96.2254869,52.4681515 C104.99086,52.4681515 118.565217,51.400856 118.565217,51.400856 C123.085527,51.1340322 123.618118,57.7844487 119.102284,58.3180964 C119.102284,58.3180964 114.552883,58.8539863 109.508933,59.1208102 L139.799486,149.401448 L148.159822,121.409607 C151.785021,109.790437 154.541962,101.449388 154.541962,94.2585975" id="Fill-17" sketch:type="MSShapeGroup"></path>
                <path d="M99.4288651,105.843013 L74.2784864,179.067104 C81.7884669,181.280172 89.7303384,182.488727 97.9564076,182.488727 C107.717592,182.488727 117.078214,180.798095 125.792119,177.7285 C125.566104,177.367503 125.362466,176.986326 125.194632,176.571516 L99.4288651,105.843013 Z" id="Fill-19" sketch:type="MSShapeGroup"></path>
                <path d="M171.506552,58.2037433 C171.866834,60.8787086 172.070472,63.7487467 172.070472,66.8407644 C172.070472,75.3589479 170.48165,84.9399424 165.697282,96.9223517 L140.094872,171.092658 C165.01476,156.531699 181.775712,129.479347 181.775712,98.4963882 C181.775712,83.8950692 178.054288,70.1637304 171.506552,58.2037433" id="Fill-21" sketch:type="MSShapeGroup"></path>
                <path d="M97.9570789,191.912318 C46.5530974,191.912318 4.72904026,150.007519 4.72904026,98.4948187 C4.72904026,46.9888451 46.5530974,5.08404593 97.9570789,5.08404593 C149.361061,5.08404593 191.180642,46.9888451 191.180642,98.4948187 C191.180642,150.007519 149.361061,191.912318 97.9570789,191.912318 M97.9570789,0.595126892 C44.0803535,0.595126892 0.249010177,44.5156794 0.249010177,98.4948187 C0.249010177,152.485169 44.0803535,196.401237 97.9570789,196.401237 C151.829329,196.401237 195.669623,152.485169 195.669623,98.4948187 C195.669623,44.5156794 151.829329,0.595126892 97.9570789,0.595126892" id="Fill-23" sketch:type="MSShapeGroup"></path>
            </g>
        </g>
    </g>
</svg>